<?xml version="1.0" encoding="utf-8"?>
<!-- Generator: Adobe Illustrator 27.8.1, SVG Export Plug-In . SVG Version: 6.00 Build 0)  -->
<svg version="1.1" id="Layer_1" xmlns="http://www.w3.org/2000/svg" xmlns:xlink="http://www.w3.org/1999/xlink" x="0px" y="0px"
	 viewBox="0 0 623.6 623.6" style="enable-background:new 0 0 623.6 623.6;" xml:space="preserve">
<style type="text/css">
	.st0{clip-path:url(#SVGID_00000028315873650386400830000003154897912531957416_);}
	.st1{clip-path:url(#SVGID_00000005239625722628601330000009749223429848621985_);fill:#FFFFFF;}
	.st2{clip-path:url(#SVGID_00000005239625722628601330000009749223429848621985_);fill:#108092;}
	.st3{clip-path:url(#SVGID_00000028315873650386400830000003154897912531957416_);fill:none;stroke:#EECD17;stroke-width:0.25;}
	.st4{clip-path:url(#SVGID_00000049200431255299049200000004466660153297754788_);fill:#FFFFFF;}
	
		.st5{clip-path:url(#SVGID_00000049200431255299049200000004466660153297754788_);fill:none;stroke:#FFFFFF;stroke-width:2;stroke-linejoin:bevel;}
	.st6{filter:url(#Adobe_OpacityMaskFilter);}
	
		.st7{clip-path:url(#SVGID_00000049200431255299049200000004466660153297754788_);fill:url(#SVGID_00000109028243871199836380000002750491679544087439_);}
	
		.st8{clip-path:url(#SVGID_00000049200431255299049200000004466660153297754788_);mask:url(#SVGID_00000181777179776439452620000004229353914282922141_);}
	.st9{clip-path:url(#SVGID_00000042695578821585235140000010734646113378365076_);fill:#FFFFFF;}
	.st10{clip-path:url(#SVGID_00000042695578821585235140000010734646113378365076_);fill:none;stroke:#108092;stroke-width:4;}
	
		.st11{clip-path:url(#SVGID_00000049200431255299049200000004466660153297754788_);fill:none;stroke:#FFFFFF;stroke-width:9;stroke-linejoin:round;}
	.st12{clip-path:url(#SVGID_00000049200431255299049200000004466660153297754788_);fill:#BF942D;}
	.st13{clip-path:url(#SVGID_00000028315873650386400830000003154897912531957416_);fill:#BF942D;}
	.st14{clip-path:url(#SVGID_00000150802533201818670560000010972343889728276398_);fill:#BF942D;}
	.st15{clip-path:url(#SVGID_00000150802533201818670560000010972343889728276398_);fill:#FFFFFF;}
</style>
<g>
	<defs>
		<rect id="SVGID_1_" width="623.6" height="623.6"/>
	</defs>
	<clipPath id="SVGID_00000062179347564134845090000007962552270258174389_">
		<use xlink:href="#SVGID_1_"  style="overflow:visible;"/>
	</clipPath>
	<g style="clip-path:url(#SVGID_00000062179347564134845090000007962552270258174389_);">
		<defs>
			<rect id="SVGID_00000122695279909003325730000003188520535186070445_" width="623.6" height="623.6"/>
		</defs>
		<clipPath id="SVGID_00000015354255779338609640000002764591863017406347_">
			<use xlink:href="#SVGID_00000122695279909003325730000003188520535186070445_"  style="overflow:visible;"/>
		</clipPath>
		<path style="clip-path:url(#SVGID_00000015354255779338609640000002764591863017406347_);fill:#FFFFFF;" d="M112.4,312
			c9.1,112.1,94.9,200.1,199.4,200.1c104.5,0,190.3-87.9,199.4-200c-44.2,47.9-117,79.2-199.4,79.2C229.5,391.3,156.6,360,112.4,312
			"/>
		<path style="clip-path:url(#SVGID_00000015354255779338609640000002764591863017406347_);fill:#FFFFFF;" d="M112.4,334.7
			c9.1,102.5,94.9,182.9,199.4,182.9c104.5,0,190.3-80.3,199.4-182.8c-44.2,43.8-117,72.4-199.4,72.4
			C229.5,407.1,156.6,378.5,112.4,334.7"/>
		<path style="clip-path:url(#SVGID_00000015354255779338609640000002764591863017406347_);fill:#108092;" d="M504.6,265.1V147.2
			c0-21.9-17.8-39.7-39.7-39.7H158.7c-21.9,0-39.7,17.8-39.7,39.7v120.8c8.5,1.2,17.2,1.8,24.6,0.9c23.6-2.7,50.1-22.7,74.6,5.7
			c24.6,28.3,50.1,44.6,65.2,57.7c4.1,3.6,8.4,5.2,12.4,5.7h5.3c8.2-0.9,14.4-5.7,14.4-5.7s16.1,8.3,27.4-4.7
			c11.3-13,42.5-42.5,55.7-52c13.2-9.4,26.5-16,39.7-16C448.5,259.7,480.3,267.2,504.6,265.1"/>
		<path style="clip-path:url(#SVGID_00000015354255779338609640000002764591863017406347_);fill:#108092;" d="M512.2,311.8
			c0,110.7-89.7,200.4-200.4,200.4c-110.7,0-200.4-89.7-200.4-200.4s89.7-200.4,200.4-200.4C422.5,111.4,512.2,201.1,512.2,311.8
			 M579.3,311.8c0-147.7-119.7-267.5-267.5-267.5c-147.7,0-267.5,119.7-267.5,267.5s119.7,267.5,267.5,267.5
			C459.5,579.3,579.3,459.5,579.3,311.8"/>
	</g>
	
		<path style="clip-path:url(#SVGID_00000062179347564134845090000007962552270258174389_);fill:none;stroke:#EECD17;stroke-width:0.25;" d="
		M311.8,404.4"/>
	<g style="clip-path:url(#SVGID_00000062179347564134845090000007962552270258174389_);">
		<defs>
			<rect id="SVGID_00000052104015911200933470000006693214434195421094_" width="623.6" height="623.6"/>
		</defs>
		<clipPath id="SVGID_00000146467189519898928400000005907937825633745068_">
			<use xlink:href="#SVGID_00000052104015911200933470000006693214434195421094_"  style="overflow:visible;"/>
		</clipPath>
		<path style="clip-path:url(#SVGID_00000146467189519898928400000005907937825633745068_);fill:#FFFFFF;" d="M564,231.5
			c0,0-28.8,20.9-109.7,14.7c0,0-29.9-7.4-46.8,9c-17,16.4-47.1,44.6-53.7,52c-6.5,7.4-16.7,16.6-20.8,17.2c0,0-15.4-4.4-21.1-4
			c-5.7-0.5-21.1,4-21.1,4c-4.2-0.6-14.3-9.8-20.8-17.2c-6.5-7.4-36.7-35.7-53.7-52c-17-16.4-46.8-9-46.8-9
			c-80.9,6.1-109.7-14.7-109.7-14.7c30.3,171,243.4,162.4,252.2,161.9C320.6,393.9,533.7,402.6,564,231.5"/>
		
			<path style="clip-path:url(#SVGID_00000146467189519898928400000005907937825633745068_);fill:none;stroke:#FFFFFF;stroke-width:2;stroke-linejoin:bevel;" d="
			M564,231.5c0,0-28.8,20.9-109.7,14.7c0,0-29.9-7.4-46.8,9c-17,16.4-47.1,44.6-53.7,52c-6.5,7.4-16.7,16.6-20.8,17.2
			c0,0-15.4-4.4-21.1-4c-5.7-0.5-21.1,4-21.1,4c-4.2-0.6-14.3-9.8-20.8-17.2c-6.5-7.4-36.7-35.7-53.7-52c-17-16.4-46.8-9-46.8-9
			c-80.9,6.1-109.7-14.7-109.7-14.7c30.3,171,243.4,162.4,252.2,161.9C320.6,393.9,533.7,402.6,564,231.5z"/>
		<defs>
			<filter id="Adobe_OpacityMaskFilter" filterUnits="userSpaceOnUse" x="111.3" y="330.4" width="401" height="184.8">
				<feColorMatrix  type="matrix" values="1 0 0 0 0  0 1 0 0 0  0 0 1 0 0  0 0 0 1 0"/>
			</filter>
		</defs>
		
			<mask maskUnits="userSpaceOnUse" x="111.3" y="330.4" width="401" height="184.8" id="SVGID_00000121247761534680699190000011790747585787687048_">
			<g class="st6">
				
					<radialGradient id="SVGID_00000140729414202669263350000010696158507295719822_" cx="0" cy="623.622" r="1" gradientTransform="matrix(0 -199.5047 -199.5047 0 124727.3359 422.7621)" gradientUnits="userSpaceOnUse">
					<stop  offset="0" style="stop-color:#000000"/>
					<stop  offset="1" style="stop-color:#FFFFFF"/>
				</radialGradient>
				
					<rect style="clip-path:url(#SVGID_00000146467189519898928400000005907937825633745068_);fill:url(#SVGID_00000140729414202669263350000010696158507295719822_);" width="623.6" height="623.6"/>
			</g>
		</mask>
		
			<g style="clip-path:url(#SVGID_00000146467189519898928400000005907937825633745068_);mask:url(#SVGID_00000121247761534680699190000011790747585787687048_);">
			<g>
				<defs>
					<rect id="SVGID_00000063594508866088642450000006847911803797678487_" x="111.3" y="330.4" width="401" height="184.8"/>
				</defs>
				<clipPath id="SVGID_00000129203277100252950440000007835280714144518528_">
					<use xlink:href="#SVGID_00000063594508866088642450000006847911803797678487_"  style="overflow:visible;"/>
				</clipPath>
				<path style="clip-path:url(#SVGID_00000129203277100252950440000007835280714144518528_);fill:#FFFFFF;" d="M114.9,336.5
					c11.6,100.5,95.3,175.6,196.9,175.6c101.6,0,185.3-75.1,196.9-175.5c-46.4,43.4-119.5,69.2-196.9,69.2
					C234.4,405.8,161.3,380,114.9,336.5"/>
				
					<path style="clip-path:url(#SVGID_00000129203277100252950440000007835280714144518528_);fill:none;stroke:#108092;stroke-width:4;" d="
					M114.9,336.5c11.6,100.5,95.3,175.6,196.9,175.6c101.6,0,185.3-75.1,196.9-175.5c-46.4,43.4-119.5,69.2-196.9,69.2
					C234.4,405.8,161.3,380,114.9,336.5z"/>
			</g>
		</g>
		<path style="clip-path:url(#SVGID_00000146467189519898928400000005907937825633745068_);fill:#FFFFFF;" d="M234.4,179.4
			c-0.5,0-0.9,0.4-1.2,1.3c-0.2,0.6-0.6,1-1,1c-0.4,0-0.8-0.1-1.4-0.4c-2.7-1.2-5.1-2.1-7.2-2.8c-2.1-0.7-4.5-1-7.1-1
			c-7.4,0-13.2,2.3-17.5,6.9c-4.2,4.6-6.4,10.1-6.4,16.5c0,4.5,1.1,8.4,3.2,11.6c2.1,3.3,4.9,5.8,8.4,7.6c3.5,1.8,7.4,2.7,11.8,2.7
			c2.6,0,5.2-0.3,7.9-1c2.6-0.7,5.2-1.6,7.7-3c2.5-1.3,3.8-2.1,3.8-2.3c0-0.2,0.1-0.9,0.1-2.3c0.2-6.1,0.4-9.4,0.7-10
			c0.3-0.5,1.1-0.9,2.2-1.2c1.5-0.3,2.4-0.6,2.7-0.7c0.3-0.1,0.4-0.3,0.4-0.7c0-0.6-0.3-0.9-1-0.9l-14.8,0.3H221
			c-0.8,0-1.1,0.3-1.1,1c0,0.6,0.4,0.9,1.2,1c2,0.2,3.4,0.5,4.1,0.9c0.7,0.4,1.1,1,1.4,1.9c0.3,0.9,0.4,3.2,0.4,6.9
			c0,1.7-0.2,3-0.7,3.9c-0.5,0.9-1.6,1.7-3.3,2.5c-1.7,0.8-3.4,1.2-5,1.2c-3.9,0-7.2-1.9-10.1-5.7c-2.9-3.8-4.3-8.7-4.3-14.7
			c0-5.4,1.3-10.1,3.9-14c2.6-4,6.2-5.9,10.7-5.9c3.6,0,6.7,1.1,9.4,3.3c2.7,2.2,4.9,5.1,6.6,8.7c0.4,0.8,0.8,1.2,1.3,1.2
			c0.6,0,0.9-0.3,0.9-1c0-0.3,0-0.6-0.1-1.1l-0.9-9.6C235.3,180.1,235,179.4,234.4,179.4 M252.6,208.3c-1.2,3.4-2.2,5.9-3,7.5
			c-0.8,1.6-1.6,2.6-2.4,3.2c-0.7,0.5-1.7,1-3,1.4c-0.5,0.2-0.8,0.5-0.8,1c0,0.7,0.4,1,1.2,1c0.3,0,0.6,0,1-0.1
			c1.5-0.2,3.1-0.3,4.8-0.3c0.9,0,2.2,0.1,4.1,0.2c1.5,0.1,2.4,0.2,2.7,0.2c0.9,0,1.3-0.3,1.3-0.9s-0.4-0.9-1.2-1
			c-1.1-0.1-2.1-0.5-3-1.2c-0.9-0.7-1.4-1.6-1.4-2.8c0-1.7,0.9-5.1,2.8-10.3c2.4,0,5.8,0,10.1,0c0.8,0,1.9,0,3.3,0
			c0.9,1.9,1.7,4.1,2.5,6.5c0.8,2.4,1.2,4,1.2,4.9c0,1.9-1.3,3-3.9,3.2c-0.7,0.1-1,0.3-1,0.8c0,0.6,0.5,1,1.5,1
			c0.6,0,1.7-0.1,3.5-0.2c2.4-0.2,4.3-0.3,5.8-0.3c1.5,0,3.4,0.1,5.6,0.3c1.9,0.2,3.1,0.2,3.5,0.2c0.8,0,1.3-0.3,1.3-1
			c0-0.5-0.3-0.8-1-0.9c-1.9-0.3-3.4-1.1-4.3-2.4c-0.9-1.3-2.5-5.1-4.9-11.3c-5.2-13.5-9.1-23.5-12-29.8h-2.2
			C259.2,190.1,255.3,200.6,252.6,208.3 M265.2,196c1.2,3,2.2,5.4,2.8,7.1l-11.4,0.2l5.6-14.8C262.9,190.3,263.9,192.8,265.2,196
			 M314.3,198.6c-3.1,0-6.1-0.1-8.8-0.4l-0.1-9.4c0-3,0.1-5,0.4-6c0.3-1,0.7-1.7,1.2-2.1s1.5-0.5,2.9-0.5c0.9,0,1.3-0.3,1.3-1
			c0-0.7-0.5-1-1.6-1l-9.1,0.3c-1.5,0-2.9,0-4.1-0.1c-2.2-0.2-3.7-0.3-4.7-0.3c-0.7,0-1.1,0.3-1.1,1c0,0.4,0.1,0.7,0.3,0.8
			c0.2,0.1,0.7,0.2,1.6,0.4c1.1,0.1,1.9,0.5,2.5,1c0.5,0.5,0.9,1.5,1.1,3c0.2,1.5,0.3,3.8,0.3,7.1c0,0.7,0,4.6-0.1,11.8
			c-0.1,7.2-0.2,11.6-0.5,13.1c-0.3,1.5-0.7,2.6-1.3,3.1c-0.6,0.6-1.7,0.9-3.4,1.1c-0.9,0.1-1.3,0.4-1.3,1c0,0.7,0.6,1,1.7,1
			c0.5,0,1.4-0.1,3-0.2c2.2-0.1,3.9-0.2,5.2-0.2c2.8,0,5.5,0.1,8,0.4c0.6,0.1,1.1,0.1,1.4,0.1c0.9,0,1.3-0.3,1.3-0.9
			c0-0.6-0.4-0.9-1.3-1c-1.7-0.1-2.9-0.6-3.4-1.6c-0.5-1-0.8-2.8-0.8-5.3c0-3.6,0.1-7.6,0.4-12c1.9-0.2,4.5-0.3,7.9-0.3
			c2.9,0,6.2,0.1,10,0.2c0,1.2,0.1,2.2,0.1,2.8c0,5.9-0.2,9.9-0.5,11.9c-0.3,2-0.8,3.3-1.5,3.8c-0.7,0.6-1.8,0.8-3.4,0.8
			c-0.6,0-1,0.3-1,0.9c0,0.6,0.4,1,1.2,1c0.9,0,2.7-0.1,5.6-0.3c1.5-0.1,2.5-0.1,3.1-0.1l8.9,0.3c0.9,0.1,1.4,0.1,1.7,0.1
			c0.8,0,1.2-0.3,1.2-0.9c0-0.7-0.5-1-1.5-1c-1.6,0-2.8-0.3-3.5-1c-0.7-0.7-1.1-1.9-1.2-3.6c-0.1-1.7-0.1-6.5-0.1-14.3
			c0-1.9,0.1-5.3,0.2-10.3c0.1-5,0.3-7.9,0.6-8.7c0.2-0.8,0.7-1.4,1.3-1.8c0.6-0.4,1.7-0.6,3.2-0.6c0.9,0,1.4-0.4,1.4-1.1
			c0-0.6-0.4-0.9-1.2-0.9c-0.2,0-0.6,0-1.1,0.1c-2.7,0.2-5.9,0.3-9.6,0.3c-0.3,0-1.7-0.1-4.3-0.2c-2-0.1-3.5-0.1-4.5-0.1
			c-0.9,0-1.3,0.3-1.3,1c0,0.6,0.7,1,2.2,1.1c1.8,0.1,2.9,0.7,3.5,1.9c0.6,1.2,0.8,3.2,0.8,6l-0.3,10
			C320.4,198.5,317.4,198.6,314.3,198.6 M349.2,208.3c-1.2,3.4-2.2,5.9-3,7.5c-0.8,1.6-1.6,2.6-2.4,3.2c-0.7,0.5-1.7,1-3,1.4
			c-0.5,0.2-0.8,0.5-0.8,1c0,0.7,0.4,1,1.2,1c0.3,0,0.6,0,1-0.1c1.5-0.2,3.1-0.3,4.8-0.3c0.9,0,2.2,0.1,4.1,0.2
			c1.5,0.1,2.4,0.2,2.7,0.2c0.9,0,1.3-0.3,1.3-0.9s-0.4-0.9-1.2-1c-1.1-0.1-2.1-0.5-3-1.2c-0.9-0.7-1.4-1.6-1.4-2.8
			c0-1.7,0.9-5.1,2.8-10.3c2.4,0,5.8,0,10.1,0c0.8,0,1.9,0,3.3,0c0.9,1.9,1.7,4.1,2.5,6.5c0.8,2.4,1.2,4,1.2,4.9
			c0,1.9-1.3,3-3.9,3.2c-0.7,0.1-1,0.3-1,0.8c0,0.6,0.5,1,1.5,1c0.6,0,1.7-0.1,3.5-0.2c2.4-0.2,4.3-0.3,5.8-0.3
			c1.5,0,3.4,0.1,5.6,0.3c1.9,0.2,3.1,0.2,3.5,0.2c0.8,0,1.3-0.3,1.3-1c0-0.5-0.3-0.8-1-0.9c-1.9-0.3-3.4-1.1-4.3-2.4
			c-0.9-1.3-2.5-5.1-4.9-11.3c-5.2-13.5-9.1-23.5-12-29.8h-2.2C355.8,190.1,351.8,200.6,349.2,208.3 M361.8,196
			c1.2,3,2.2,5.4,2.8,7.1l-11.4,0.2l5.6-14.8C359.5,190.3,360.5,192.8,361.8,196 M417.8,198.1c2-0.8,3.6-2.1,4.9-3.8
			c1.3-1.7,2-3.7,2-5.8c0-3.2-1.4-5.8-4.1-7.8c-2.8-2-6.6-3-11.4-3c-1.5,0-3.2,0.1-5,0.2c-4.2,0.3-9.3,0.4-15.3,0.4
			c-1.2,0-1.8,0.3-1.8,1c0,0.6,0.5,0.9,1.3,1c2.3,0,3.7,0.7,4.2,2.1c0.5,1.4,0.8,5.1,0.8,11.2l0,11.9l0,6.2c0,4.6-0.5,7.2-1.5,7.8
			c-1,0.6-2.1,0.9-3.3,0.9c-0.8,0-1.2,0.3-1.2,0.9c0,0.6,0.4,1,1.3,1c0.5,0,1.7-0.1,3.6-0.2c2.1-0.1,3.8-0.2,5.1-0.2l9.9,0.3
			c0.8,0,1.3-0.3,1.3-0.9c0-0.6-0.5-0.9-1.4-1c-1.8-0.1-3-0.5-3.7-1.3c-0.6-0.8-1-2.1-1-3.9c-0.1-1.8-0.1-6.6-0.1-14.3
			c0.9-0.1,1.5-0.1,2-0.1c1.7,0,3.2,0.4,4.5,1.2c1.3,0.8,2.2,2.1,2.9,3.8c0.6,1.8,1.3,4.9,1.9,9.2c0.5,3.4,1.3,5.8,2.6,7.1l12.4,0.3
			c1.6,0,2.4-0.3,2.4-1c0-0.6-0.5-0.9-1.5-1c-1.8-0.1-3.2-0.8-4.2-2c-1-1.2-2-3.8-2.9-7.6c-0.9-4.1-2.3-6.9-4.2-8.3
			c-1.9-1.4-4.2-2.3-7.1-2.7C413.6,199.4,415.9,198.9,417.8,198.1 M402.2,180.6c1.3-0.4,2.5-0.6,3.6-0.6c2.5,0,4.5,0.8,6.1,2.3
			c1.6,1.5,2.4,3.7,2.4,6.5c0,1.8-0.4,3.5-1.2,5c-0.8,1.6-2.1,2.7-4,3.4c-1.9,0.7-3.8,1.1-5.6,1.1c-0.3,0-0.7,0-1.3,0V180.6z"/>
		
			<path style="clip-path:url(#SVGID_00000146467189519898928400000005907937825633745068_);fill:none;stroke:#FFFFFF;stroke-width:9;stroke-linejoin:round;" d="
			M516.1,274.7C493.3,179,410.7,108.1,312.2,108.1c-99.6,0-183,72.5-204.6,169.9"/>
		<path style="clip-path:url(#SVGID_00000146467189519898928400000005907937825633745068_);fill:#BF942D;" d="M308,362.7l1.1-4.3
			l-7.4,3.4v-4.1l-12.3,8.6l-0.4-6.3l-10.4,7.5l4.4-9.3l-5.3,4.3l2.7-9.7l-11,8.4l5.3-10.4l-6.1,0.7l7-6.1l-5.3-0.9l4.4-4.3
			l-7.6,0.2l5.9-5.7l-14.8,7.5l8.5,1.4l-5.1,3.2l5.9,1.4l-6.4,5l7,1.1l-5.1,4.5h4.9l-3.2,11.5l9.9-7.9l-1.1,8.6l3.2-2.7l-2.1,7.9
			l11.6-8.4l0.9,6.3l11.6-9.5v4.7l5.9-4.7l0.6,5.9c0,0,21.4-10.6,39.1-12.2C344,358.2,335.1,354.1,308,362.7"/>
	</g>
	<polygon style="clip-path:url(#SVGID_00000062179347564134845090000007962552270258174389_);fill:#BF942D;" points="341.7,340.4 
		332,336.8 331.3,340.8 335.9,344.2 340,342.1 	"/>
	<g style="clip-path:url(#SVGID_00000062179347564134845090000007962552270258174389_);">
		<defs>
			<rect id="SVGID_00000154386296114756615820000017802551269903198608_" width="623.6" height="623.6"/>
		</defs>
		<clipPath id="SVGID_00000057137867021131702320000004615155807034325391_">
			<use xlink:href="#SVGID_00000154386296114756615820000017802551269903198608_"  style="overflow:visible;"/>
		</clipPath>
		<path style="clip-path:url(#SVGID_00000057137867021131702320000004615155807034325391_);fill:#BF942D;" d="M329.6,323.9
			c-0.3-0.1-0.5-0.1-0.8-0.2"/>
		<path style="clip-path:url(#SVGID_00000057137867021131702320000004615155807034325391_);fill:#BF942D;" d="M270.5,332.7
			c-2.5,1.1-4,1.7-4,1.7s31.5-7.7,49.3-7.7c17.8,0,28.8,9,28.8,9l1.9,5.4c3.6,1.6,16.1,7.9,16.1,15.1s-6.3,5.9-6.3,5.9
			s2.7-3.2,0.4-5.7c-2.3-2.5-16.3-2.9-16.3-2.9s1.7,2.9,8.2,2.9c3.6,0,5.1,3.2,5.1,3.2l-2.5,4.7c0,0,14.2,3.4,14.2-7.7
			c0-12.4-16.1-18.8-16.1-18.8l-2.3-6.1c0,0-9.6-8.5-16.8-8.1c-0.3,0-1,0.1-0.7,0l-6-0.9c-2.2-0.3-5.3-0.4-8.4-0.4
			c-15.5,0-31.8,5.2-41.1,8.8"/>
		<path style="clip-path:url(#SVGID_00000057137867021131702320000004615155807034325391_);fill:#BF942D;" d="M207.3,315.6l-8-4.9
			c-17.5,23.4-54.5,24.1-65.7,23.8c5.6,3.6,11.5,7.1,18,10.5h0C156.7,345,191.3,344.2,207.3,315.6"/>
		<path style="clip-path:url(#SVGID_00000057137867021131702320000004615155807034325391_);fill:#BF942D;" d="M178.3,293.2l-7.2-8.3
			c-35.7,19.4-77.4,10.5-77.4,10.5l-4.3-1.4c2.8,3.7,5.9,7.4,9.3,11.2l0,0c2,1.9,4,3.8,5.9,5.6C112.9,311.3,155.7,313.7,178.3,293.2
			"/>
		<path style="clip-path:url(#SVGID_00000057137867021131702320000004615155807034325391_);fill:#BF942D;" d="M222,322.9l-8.9-4.1
			c-2.6,6.3-15.9,28.4-51.3,31.2c5.2,2.4,10.8,4.7,16.6,6.9C186.1,355.2,217.1,345.8,222,322.9"/>
		<path style="clip-path:url(#SVGID_00000057137867021131702320000004615155807034325391_);fill:#BF942D;" d="M187.8,360.2
			c5.2,1.7,10.6,3.4,16.3,4.9c30.8-4.8,33.7-36.5,33.7-36.5l-8.7-2.9C227.2,335.6,215.9,353.8,187.8,360.2"/>
		<path style="clip-path:url(#SVGID_00000057137867021131702320000004615155807034325391_);fill:#BF942D;" d="M166.6,278.6
			C166.6,278.6,166.7,278.6,166.6,278.6l-5.2-9.5c0,0,0,0,0,0c0,0,0,0,0,0c-41.1,17.1-81.1,0.7-88.3-2.5c2.7,5.8,6.2,12.3,10.6,19.1
			C130.2,297.7,161.1,281.8,166.6,278.6"/>
		<path style="clip-path:url(#SVGID_00000057137867021131702320000004615155807034325391_);fill:#BF942D;" d="M193.9,306.9l-10.8-9
			c-3.4,3.7-26.3,22.6-72.8,18.7c3.9,3.5,8.1,7,12.6,10.4c0.9,0.6,1.9,1.3,2.8,2C168.2,331,188.5,314.3,193.9,306.9"/>
		<path style="clip-path:url(#SVGID_00000057137867021131702320000004615155807034325391_);fill:#BF942D;" d="M291.4,326.2
			c-10.8-1-37.3-32.8-62.7-54.3c-22.5-19.1-25.8-21-37.9-21c-11.9,0-18.7,2.6-61,2.7c0,0,0,0,0,0.1l-4.1-0.1
			c-28.7-0.5-55-12-61.6-15h0c1.8,6.8,3.9,13.1,6.3,19.1c1.6,0.7,3.5,1.4,5.5,2c12.5,4.2,44,12.9,74.2,5.3c0,0,5.3-1.1,7.8-5.6
			c0,0,18.6-2,33.4-2c17.8,0,39.8,26.9,45.5,32.1c5.7,5.2,27.9,24.6,39.3,33.2c5.2,3.9,9.1,5,11.8,5"/>
		<path style="clip-path:url(#SVGID_00000057137867021131702320000004615155807034325391_);fill:#BF942D;" d="M416.3,315.6l8-4.9
			c17.5,23.4,54.5,24.1,65.7,23.8c-5.5,3.6-11.5,7.1-18,10.5h0C466.9,345,432.3,344.2,416.3,315.6"/>
		<path style="clip-path:url(#SVGID_00000057137867021131702320000004615155807034325391_);fill:#BF942D;" d="M445.3,293.2l7.2-8.3
			c35.7,19.4,77.4,10.5,77.4,10.5l4.3-1.4c-2.8,3.7-5.9,7.4-9.3,11.2l0,0c-2,1.9-4,3.8-5.9,5.6C510.7,311.3,467.9,313.7,445.3,293.2
			"/>
		<path style="clip-path:url(#SVGID_00000057137867021131702320000004615155807034325391_);fill:#BF942D;" d="M401.6,322.9l8.9-4.1
			c2.6,6.3,15.9,28.4,51.3,31.2c-5.2,2.4-10.8,4.7-16.6,6.9C437.5,355.2,406.6,345.8,401.6,322.9"/>
		<path style="clip-path:url(#SVGID_00000057137867021131702320000004615155807034325391_);fill:#BF942D;" d="M435.9,360.2
			c-5.2,1.7-10.6,3.4-16.3,4.9c-30.8-4.8-33.7-36.5-33.7-36.5l8.7-2.9C396.4,335.6,407.7,353.8,435.9,360.2"/>
		<path style="clip-path:url(#SVGID_00000057137867021131702320000004615155807034325391_);fill:#BF942D;" d="M457,278.6
			C457,278.6,457,278.6,457,278.6l5.2-9.5c0,0,0,0,0,0c0,0,0,0,0,0c41.1,17.1,81.1,0.7,88.3-2.5c-2.7,5.8-6.2,12.3-10.6,19.1
			C493.4,297.7,462.5,281.8,457,278.6"/>
		<path style="clip-path:url(#SVGID_00000057137867021131702320000004615155807034325391_);fill:#BF942D;" d="M429.7,306.9l10.8-9
			c3.4,3.7,26.3,22.6,72.8,18.7c-3.9,3.5-8.1,7-12.6,10.4c-0.9,0.6-1.9,1.3-2.8,2C455.5,331,435.2,314.3,429.7,306.9"/>
		<path style="clip-path:url(#SVGID_00000057137867021131702320000004615155807034325391_);fill:#BF942D;" d="M332.2,326.2
			c10.8-1,37.3-32.8,62.7-54.3c22.5-19.1,25.8-21,37.9-21c11.9,0,18.7,2.6,61,2.7c0,0,0,0,0,0.1l4.1-0.1c28.7-0.5,55-12,61.6-15h0
			c-1.8,6.8-3.9,13.1-6.3,19.1c-1.6,0.7-3.5,1.4-5.5,2c-12.5,4.2-44,12.9-74.2,5.3c0,0-5.3-1.1-7.8-5.6c0,0-18.6-2-33.4-2
			c-17.8,0-39.8,26.9-45.5,32.1c-5.7,5.2-27.9,24.6-39.3,33.2c-5.2,3.9-9.1,5-11.8,5"/>
		<path style="clip-path:url(#SVGID_00000057137867021131702320000004615155807034325391_);fill:#FFFFFF;" d="M534.5,310.9l-0.2,5.3
			l1.1,0c0.1-0.2,0.2-0.5,0.4-0.8c0.2-0.3,0.4-0.6,0.6-0.7c0.3-0.2,0.8-0.3,1.4-0.4c0.6-0.1,1.5-0.1,2.8-0.1l7.9,0.2l-14.3,6.3
			l-0.1,4.6l1.2,0c0.1-0.3,0.3-0.6,0.5-0.9c0.2-0.3,0.5-0.5,0.8-0.7c0.3-0.2,0.7-0.3,1.1-0.4c0.4-0.1,0.9-0.1,1.4-0.1l9.8,0.3
			c1.3,0,2.3,0.1,2.9,0.2c0.6,0.1,1,0.3,1.3,0.5c0.2,0.2,0.4,0.5,0.5,0.7c0.1,0.3,0.2,0.6,0.2,0.8l1.1,0l0.2-5.3l-1.1,0
			c-0.1,0.2-0.2,0.5-0.4,0.8s-0.4,0.6-0.6,0.7c-0.3,0.2-0.8,0.3-1.4,0.4c-0.6,0.1-1.6,0.1-2.8,0.1l-9.8-0.3l16.3-7.1l0-1.5
			l-14.9-0.5c-1.2,0-2.2-0.1-2.8-0.2c-0.6-0.1-1.1-0.3-1.3-0.5c-0.3-0.3-0.5-0.5-0.5-0.8c-0.1-0.3-0.1-0.5-0.1-0.7L534.5,310.9z
			 M552.7,332.7c0.4,0.5,0.6,1,0.6,1.5c-0.1,0.6-0.3,1-0.9,1.4c-0.5,0.4-1.2,0.6-2.1,0.8c-0.9,0.2-1.9,0.3-3.1,0.3
			c-1.2,0-2.4,0-3.7-0.2c-3-0.3-5.4-0.8-7-1.5c-1.6-0.7-2.4-1.6-2.3-2.6c0.1-0.6,0.4-1.1,0.9-1.4c0.6-0.4,1.3-0.6,2.2-0.8
			c0.9-0.2,1.9-0.2,3.1-0.2c1.1,0,2.3,0.1,3.5,0.2c1.4,0.1,2.7,0.3,3.8,0.5c1.1,0.2,2.1,0.5,3,0.8
			C551.6,331.9,552.3,332.3,552.7,332.7 M533.9,329.8c-0.6,0.8-0.9,1.6-1,2.5c-0.1,0.9,0.1,1.8,0.5,2.7c0.4,0.9,1.1,1.6,2,2.3
			c0.9,0.7,2.1,1.3,3.4,1.7c1.3,0.5,2.9,0.8,4.6,1c1.6,0.2,3.1,0.1,4.5-0.1c1.4-0.2,2.5-0.6,3.5-1.1c1-0.5,1.8-1.1,2.4-1.9
			c0.6-0.7,0.9-1.6,1-2.5c0.1-1.1-0.1-2.1-0.6-2.9c-0.5-0.9-1.2-1.6-2.2-2.3c-0.9-0.7-2.1-1.2-3.4-1.6c-1.3-0.4-2.8-0.7-4.3-0.9
			c-1.7-0.2-3.2-0.1-4.6,0.1c-1.4,0.2-2.5,0.6-3.5,1.1C535.2,328.4,534.5,329.1,533.9,329.8 M552.1,342.6c0,0.2-0.1,0.4-0.3,0.7
			c-0.1,0.3-0.2,0.5-0.3,0.6c-0.2,0.2-0.4,0.3-0.7,0.4c-0.3,0-0.6,0-0.9,0l-14.6-2.1c-0.3,0-0.6-0.1-0.9-0.2
			c-0.3-0.1-0.4-0.3-0.5-0.5c-0.1-0.2-0.1-0.4-0.1-0.7c0-0.3,0-0.5,0-0.7l-1.1-0.2l-1,6.7l1.1,0.2c0.1-0.2,0.2-0.4,0.3-0.7
			c0.1-0.3,0.3-0.4,0.4-0.6c0.2-0.2,0.4-0.3,0.7-0.3c0.3,0,0.6,0,0.9,0l14.6,2.1c0.4,0.1,0.7,0.1,0.9,0.2c0.2,0.1,0.4,0.3,0.5,0.5
			c0.1,0.1,0.1,0.3,0.1,0.6s0,0.5,0,0.7l1.1,0.2l1-6.7L552.1,342.6z M531.7,347l-2.2,11.7l5.9,1.1l0.1-0.7c-0.8-0.3-1.7-0.8-2.7-1.4
			c-0.9-0.6-1.4-1-1.4-1.4c0-0.2,0-0.4,0-0.7c0-0.3,0-0.5,0.1-0.7l0.1-0.4l16.2,3c0.4,0.1,0.7,0.2,0.9,0.3c0.2,0.1,0.4,0.3,0.5,0.6
			c0.1,0.1,0.1,0.3,0.1,0.6c0,0.3,0,0.5,0,0.7l1.1,0.2l1.2-6.7l-1.1-0.2c-0.1,0.2-0.2,0.4-0.3,0.7c-0.1,0.3-0.3,0.4-0.4,0.6
			c-0.2,0.2-0.4,0.3-0.7,0.3c-0.3,0-0.6,0-0.9-0.1l-16-3l0.1-0.4c0-0.2,0.1-0.4,0.2-0.7c0.1-0.3,0.2-0.5,0.2-0.7
			c0.1-0.3,0.7-0.6,1.8-0.8c1.1-0.2,2.1-0.3,3-0.3l0.1-0.7L531.7,347z M539.4,370.5l-6.9-3.5l7.7,0.1L539.4,370.5z M548.8,362.6
			c-0.1,0.2-0.2,0.3-0.3,0.5c-0.1,0.2-0.3,0.3-0.5,0.5c-0.3,0.2-0.5,0.3-0.8,0.3c-0.3,0.1-0.5,0.1-0.8,0.1c-1.9,0-4.2,0-7-0.1
			c-2.8,0-6.6-0.1-11.5-0.1l-0.4,1.7c3,1.6,5.8,3.1,8.3,4.4c2.5,1.3,5,2.6,7.5,4c0.4,0.2,0.8,0.5,1.1,0.7c0.3,0.2,0.5,0.5,0.7,0.8
			c0.1,0.2,0.2,0.4,0.2,0.6c0,0.3,0,0.5,0,0.7l1.1,0.3l1.2-4.9l-1.1-0.3c-0.3,0.6-0.5,1-0.8,1.2c-0.3,0.2-0.6,0.3-0.9,0.2
			c-0.1,0-0.3-0.1-0.5-0.2c-0.2-0.1-0.6-0.2-1.1-0.5c-0.4-0.2-0.8-0.4-1.3-0.6s-0.9-0.5-1.3-0.7l1-4.1l4.4,0c0.2,0,0.3,0,0.4,0
			c0.1,0,0.2,0,0.3,0.1c0.2,0.1,0.3,0.3,0.4,0.7c0,0.4,0,0.8,0,1.1l1.1,0.3l1.6-6.5L548.8,362.6z M539.8,375.7
			c0.7,0.4,1.4,0.9,2.2,1.4c0.8,0.6,1.4,1.1,1.7,1.5c0.2,0.3,0.3,0.6,0.3,1.1c0,0.4-0.1,0.9-0.3,1.3c-0.1,0.5-0.3,0.8-0.4,1
			c-0.1,0.2-0.3,0.4-0.5,0.5c-0.2,0.1-0.5,0.1-0.9,0.1c-0.4-0.1-0.9-0.2-1.5-0.4l-13.1-4c-0.3-0.1-0.6-0.2-0.8-0.4
			c-0.2-0.1-0.4-0.4-0.4-0.6c0-0.2,0-0.4,0-0.7c0-0.3,0-0.5,0.1-0.7l-1.1-0.3l-2,6.5l1.1,0.3c0.1-0.1,0.2-0.3,0.4-0.5
			c0.2-0.2,0.3-0.4,0.5-0.5c0.2-0.2,0.5-0.3,0.7-0.3c0.2,0,0.5,0.1,0.9,0.2l14,4.3c0.4,0.1,0.7,0.2,0.9,0.4c0.2,0.1,0.4,0.3,0.4,0.6
			c0,0.1,0,0.3,0,0.6c0,0.3,0,0.5-0.1,0.7l1.1,0.3l3.3-10.8l-6.3-2.2L539.8,375.7z M523.1,382.2l-1.9,5l1.1,0.4
			c0.1-0.1,0.3-0.3,0.6-0.6c0.3-0.3,0.6-0.5,0.8-0.5c0.3-0.1,0.8-0.1,1.4,0c0.6,0.1,1.5,0.4,2.7,0.8l6.6,2.5c1.9,0.7,3.2,1.5,4,2.4
			c0.8,0.9,1,1.8,0.6,2.8c-0.4,1-1.1,1.5-2.1,1.7c-1.1,0.2-2.6-0.1-4.5-0.8l-9.8-3.7c-0.3-0.1-0.6-0.3-0.8-0.4
			c-0.2-0.2-0.4-0.4-0.4-0.6c0-0.2,0-0.4,0-0.6c0-0.2,0-0.4,0.1-0.6l-1-0.4l-2.3,6l1,0.4c0.1-0.1,0.2-0.3,0.3-0.4
			c0.2-0.2,0.3-0.3,0.5-0.4c0.3-0.1,0.5-0.2,0.8-0.2c0.3,0,0.5,0.1,0.9,0.2l10,3.7c2.2,0.8,4.2,1,5.7,0.6s2.7-1.5,3.3-3.1
			c0.5-1.4,0.3-2.8-0.7-4.1c-1-1.3-2.5-2.4-4.7-3.2l-7.3-2.7c-1.2-0.4-2.1-0.8-2.6-1.1c-0.6-0.3-0.9-0.6-1.1-0.9
			c-0.2-0.3-0.2-0.6-0.2-0.9c0-0.3,0-0.6,0.1-0.7L523.1,382.2z M528.4,400.2l-2.6,5.8l1,0.5c0.1-0.1,0.3-0.3,0.4-0.5
			c0.2-0.2,0.4-0.4,0.6-0.5c0.3-0.1,0.5-0.2,0.8-0.2c0.2,0,0.5,0.1,0.9,0.3l3.9,1.7c0.2,0.3,0.4,0.7,0.5,1.2c0.1,0.5,0,0.9-0.2,1.4
			c-0.4,1-1.6,1.4-3.4,1.2c-1.8-0.2-4.1-0.9-6.9-2.1c-2.6-1.2-4.6-2.4-5.8-3.6c-1.3-1.2-1.7-2.3-1.2-3.3c0.4-0.9,1.2-1.3,2.5-1.4
			c1.3-0.1,3,0.1,5.3,0.6l0.3-0.7l-7-3l-0.3,0.7l0.5,0.8c-0.5,0.2-0.9,0.5-1.5,1c-0.5,0.4-0.9,1-1.2,1.6c-0.4,0.9-0.6,1.9-0.4,2.9
			c0.1,1,0.6,2,1.2,2.9c0.7,1,1.6,1.9,2.7,2.7c1.1,0.9,2.4,1.6,3.9,2.3c1.6,0.7,3.1,1.2,4.4,1.4c1.4,0.2,2.6,0.3,3.7,0.1
			c1.1-0.2,2-0.5,2.7-1c0.7-0.5,1.3-1.2,1.6-2c0.4-0.9,0.6-1.9,0.6-3.2c0-1.2-0.2-2.2-0.5-3c-0.4-0.2-0.7-0.3-1-0.4
			c-0.3-0.1-0.6-0.3-1.1-0.5l-2.2-1c-0.3-0.1-0.6-0.3-0.8-0.5c-0.2-0.2-0.4-0.4-0.4-0.7c0-0.2,0-0.4,0-0.6c0-0.1,0.1-0.3,0.1-0.5
			L528.4,400.2z M511.9,409.4l-5,9.7l1,0.5c0.1-0.1,0.2-0.3,0.5-0.5c0.2-0.2,0.4-0.3,0.6-0.4c0.3-0.1,0.5-0.2,0.8-0.1
			c0.2,0,0.5,0.2,0.8,0.3l13,6.8c0.3,0.2,0.6,0.3,0.8,0.5c0.2,0.2,0.3,0.4,0.3,0.7c0,0.1,0,0.3-0.1,0.6c-0.1,0.3-0.1,0.5-0.2,0.6
			l1,0.5l5.3-10.2l-5.6-3.2l-0.3,0.6c0.4,0.3,0.9,0.9,1.6,1.6c0.7,0.8,1.2,1.4,1.5,1.8c0.1,0.2,0.2,0.4,0.2,0.6c0,0.2,0,0.5-0.1,0.7
			c-0.1,0.2-0.1,0.4-0.3,0.7c-0.1,0.3-0.2,0.5-0.3,0.7c-0.2,0.4-0.4,0.7-0.6,0.9c-0.2,0.2-0.4,0.3-0.6,0.4c-0.2,0-0.5,0-0.9-0.1
			c-0.3-0.1-0.8-0.3-1.4-0.6l-5.3-2.8l0.6-1.1c0.2-0.3,0.4-0.5,0.6-0.7c0.2-0.2,0.6-0.3,1-0.3c0.3,0,0.7,0.1,1.3,0.2
			c0.6,0.2,1.1,0.3,1.5,0.5l0.3-0.6l-7.7-4l-0.3,0.6c0.4,0.2,0.8,0.5,1.2,0.9c0.4,0.4,0.7,0.7,0.9,0.9c0.2,0.4,0.3,0.7,0.3,1
			s-0.1,0.6-0.2,0.9l-0.6,1.1l-7.1-3.7l0.8-1.6c0.1-0.2,0.2-0.4,0.4-0.7c0.2-0.3,0.3-0.5,0.4-0.6c0.3-0.3,0.9-0.4,1.8-0.4
			c0.9,0,1.7,0.1,2.5,0.3l0.3-0.6L511.9,409.4z M511.5,429c0.4,0.8,0.4,1.5,0,2.3l-0.3,0.6l-7.5-4.5l0.4-0.6c0.4-0.7,1-1.1,1.8-1.2
			c0.8-0.1,1.8,0.3,3,1C510.2,427.4,511.1,428.2,511.5,429 M524.1,428.9c-0.1,0.1-0.2,0.2-0.3,0.3c-0.1,0.2-0.3,0.3-0.4,0.3
			c-0.2,0.1-0.7,0.2-1.3,0.2c-0.6,0-1.2,0-1.6-0.1c-1.3-0.1-2.6-0.3-3.8-0.4c-1.2-0.1-2.3-0.3-3.3-0.4c0.1-1.1-0.1-2.1-0.6-3
			c-0.5-0.9-1.4-1.7-2.6-2.4c-1.4-0.8-2.7-1.1-3.8-0.9c-1.1,0.3-2.1,1.1-2.9,2.4l-3.5,5.9l1,0.6c0.1-0.1,0.3-0.2,0.5-0.4
			c0.2-0.2,0.4-0.3,0.6-0.4c0.3-0.1,0.5-0.1,0.8-0.1c0.2,0.1,0.5,0.2,0.8,0.4l12.6,7.5c0.3,0.2,0.6,0.4,0.7,0.6
			c0.2,0.2,0.3,0.4,0.3,0.7c0,0.1,0,0.3-0.1,0.6c-0.1,0.3-0.2,0.5-0.2,0.6l1,0.6l3.4-5.6l-1-0.6c-0.1,0.1-0.3,0.3-0.5,0.4
			c-0.2,0.2-0.3,0.3-0.5,0.3c-0.3,0.1-0.5,0.1-0.8,0.1c-0.2-0.1-0.5-0.2-0.8-0.4l-5.4-3.2l0.2-0.4c1.8,0.2,3.4,0.3,4.8,0.5
			c1.3,0.2,3.1,0.5,5.4,0.9l2.4-4L524.1,428.9z M508.4,451.3c0,0.3-0.1,0.6-0.3,0.9c-0.4,0.6-1.1,0.9-2.1,0.8c-1-0.1-2-0.5-3-1.2
			c-0.6-0.4-1.1-0.8-1.6-1.3c-0.5-0.5-0.8-1-1.1-1.6c1.3,0.2,2.7,0.5,4.1,0.7c1.4,0.2,2.7,0.4,3.8,0.6
			C508.4,450.6,508.4,451,508.4,451.3 M498.3,443.6c0.4,0.6,0.8,1.2,0.9,1.8c-1.1-0.2-2-0.5-2.7-0.7c-0.7-0.2-1.3-0.5-1.8-0.8
			c-0.5-0.4-0.9-0.8-1.1-1.2c-0.2-0.4-0.2-0.8,0-1.1c0.2-0.3,0.6-0.4,1.2-0.4c0.5,0.1,1.2,0.4,1.9,0.9
			C497.3,442.6,497.8,443.1,498.3,443.6 M513.6,445.8c-0.2,0.3-0.5,0.5-0.9,0.8c-0.3,0.2-0.7,0.4-1,0.5c-0.3,0.1-0.7,0.1-1.4,0.1
			c-0.6,0-1.5-0.1-2.7-0.3c-0.3-0.6-0.7-1.1-1-1.6c-0.3-0.5-0.7-0.9-1-1.3c-0.3-0.4-0.5-0.7-0.8-1.1c-0.3-0.4-0.5-0.7-0.5-0.9
			c-0.2-0.4-0.3-0.8-0.3-1.1c0-0.3,0.2-0.7,0.4-1.1l-0.9-0.6l-2.8,4l0.9,0.6c0.4-0.3,0.7-0.5,1-0.6c0.3-0.1,0.6-0.1,0.8,0.1
			c0.4,0.3,0.9,0.7,1.4,1.3c0.5,0.6,1,1.3,1.6,2.1c-1.2-0.2-2.3-0.3-3-0.4c-0.8-0.1-1.9-0.3-3.4-0.6c-0.2-1.1-0.5-2-1-2.7
			c-0.5-0.7-1.1-1.4-2-2c-1-0.7-1.9-1-2.8-1c-0.9,0-1.6,0.4-2.1,1.2c-0.6,0.8-0.7,1.7-0.3,2.8c0.4,1.1,1.1,2,2.3,2.9
			c0.7,0.5,1.4,0.8,2.1,1.1s1.7,0.5,3,0.7c0,0.6,0.1,1.2,0.2,1.8c0.1,0.6,0.3,1.1,0.6,1.7c0.3,0.6,0.7,1,1,1.5
			c0.4,0.4,0.9,0.9,1.6,1.3c1.3,0.9,2.5,1.4,3.8,1.4c1.2,0,2.1-0.4,2.7-1.3c0.4-0.6,0.6-1.2,0.6-1.9c0-0.7-0.2-1.6-0.6-2.7
			c0.4,0.1,0.8,0.1,1.3,0.2s0.9,0.1,1.2,0.2l2.9-4.2L513.6,445.8z M487,449.2l-3.4,4l0.9,0.7c0.2-0.1,0.4-0.2,0.8-0.4
			c0.3-0.1,0.6-0.2,0.9-0.2c0.4,0,0.8,0.2,1.3,0.5c0.5,0.3,1.3,0.9,2.2,1.7l6,5l-15.1-3.9l-3,3.5l0.9,0.8c0.3-0.2,0.6-0.3,0.9-0.4
			c0.3-0.1,0.7-0.1,1,0c0.4,0.1,0.7,0.2,1.1,0.4c0.4,0.2,0.8,0.5,1.1,0.8l7.6,6.3c1,0.9,1.7,1.5,2.1,1.9c0.4,0.4,0.6,0.8,0.7,1.2
			c0.1,0.3,0,0.6-0.1,0.9c-0.1,0.3-0.2,0.5-0.3,0.7l0.9,0.7l3.4-4.1l-0.9-0.7c-0.2,0.1-0.4,0.3-0.8,0.4c-0.3,0.2-0.7,0.2-0.9,0.2
			c-0.4,0-0.8-0.2-1.4-0.5c-0.5-0.3-1.3-0.9-2.2-1.7l-7.5-6.3l17.2,4.4l1-1.2l-11.4-9.5c-1-0.8-1.6-1.4-2.1-1.9s-0.7-0.9-0.8-1.2
			c-0.1-0.4,0-0.7,0.1-1c0.1-0.3,0.2-0.5,0.3-0.6L487,449.2z M487.8,477.6c0.1,0.6-0.1,1.2-0.5,1.6c-0.4,0.4-0.9,0.6-1.5,0.6
			s-1.3-0.3-2.1-0.7c-0.8-0.4-1.7-1-2.6-1.7c-0.9-0.7-1.8-1.5-2.8-2.4c-2.2-2.1-3.7-4-4.6-5.5c-0.8-1.6-0.9-2.7-0.2-3.5
			c0.4-0.4,1-0.6,1.6-0.5c0.7,0.1,1.4,0.3,2.2,0.8c0.8,0.4,1.7,1,2.5,1.7c0.9,0.7,1.8,1.5,2.6,2.3c1,1,1.9,1.9,2.6,2.8
			c0.7,0.9,1.3,1.7,1.8,2.5C487.5,476.2,487.7,476.9,487.8,477.6 M474.9,463.6c-0.9,0.2-1.7,0.7-2.3,1.3c-0.6,0.7-1.1,1.5-1.2,2.4
			c-0.2,1-0.1,2,0.1,3.1c0.3,1.1,0.8,2.3,1.6,3.5c0.8,1.2,1.7,2.4,3,3.6c1.2,1.1,2.4,2,3.6,2.7c1.2,0.7,2.3,1.1,3.4,1.3
			c1.1,0.2,2.1,0.2,3,0c0.9-0.2,1.7-0.7,2.3-1.3c0.8-0.8,1.2-1.7,1.4-2.7c0.1-1,0.1-2-0.3-3.2c-0.3-1.1-0.9-2.2-1.6-3.4
			c-0.8-1.2-1.7-2.3-2.8-3.3c-1.2-1.2-2.4-2.1-3.6-2.8c-1.2-0.7-2.4-1.1-3.4-1.3C476.8,463.3,475.8,463.3,474.9,463.6 M481.2,485
			c-0.2,0.1-0.4,0.2-0.6,0.4c-0.3,0.1-0.5,0.2-0.6,0.2c-0.3,0-0.5,0-0.7-0.1c-0.2-0.1-0.5-0.3-0.7-0.6l-10.1-10.7
			c-0.2-0.2-0.4-0.5-0.5-0.7c-0.1-0.2-0.2-0.5-0.1-0.7c0.1-0.2,0.2-0.4,0.3-0.6c0.2-0.2,0.3-0.4,0.4-0.5l-0.8-0.8l-5,4.7l0.8,0.8
			c0.2-0.1,0.4-0.2,0.7-0.3c0.3-0.1,0.5-0.2,0.7-0.2c0.3,0,0.5,0,0.7,0.1c0.2,0.1,0.5,0.3,0.7,0.6l10.1,10.7
			c0.3,0.3,0.4,0.5,0.5,0.7c0.1,0.2,0.1,0.5,0.1,0.7c0,0.1-0.1,0.3-0.3,0.6c-0.2,0.2-0.3,0.4-0.4,0.5l0.8,0.8l5-4.7L481.2,485z
			 M462.4,475.7l-8.9,7.8l3.9,4.5l0.5-0.4c-0.5-0.8-0.9-1.7-1.2-2.7c-0.4-1-0.5-1.7-0.3-2c0.1-0.2,0.3-0.3,0.4-0.5
			c0.2-0.2,0.4-0.4,0.5-0.5l0.3-0.3l10.9,12.4c0.2,0.3,0.4,0.5,0.5,0.8c0.1,0.2,0.1,0.5,0.1,0.8c0,0.1-0.1,0.3-0.3,0.6
			c-0.2,0.2-0.3,0.4-0.4,0.6l0.8,0.9l5.1-4.5l-0.8-0.9c-0.2,0.1-0.4,0.2-0.7,0.3c-0.3,0.1-0.5,0.2-0.6,0.2c-0.3,0-0.5,0-0.8-0.2
			c-0.2-0.2-0.5-0.4-0.7-0.6L460,479.6l0.3-0.3c0.1-0.1,0.3-0.3,0.6-0.4c0.2-0.2,0.4-0.3,0.6-0.4c0.3-0.2,0.9,0,1.9,0.5
			c1,0.5,1.8,1,2.5,1.6l0.5-0.4L462.4,475.7z M453.9,498.9l-3.2-7l6,4.9L453.9,498.9z M466.2,498.5c-0.1,0.1-0.3,0.2-0.5,0.2
			c-0.2,0.1-0.4,0.1-0.7,0.1c-0.3,0-0.6-0.1-0.8-0.2c-0.2-0.1-0.5-0.3-0.7-0.5c-1.5-1.1-3.3-2.6-5.5-4.4c-2.2-1.8-5.2-4.2-8.9-7.2
			l-1.4,1.1c1.4,3.1,2.7,6,3.8,8.6s2.3,5.2,3.5,7.8c0.2,0.4,0.3,0.8,0.4,1.2c0.1,0.4,0.1,0.7,0.1,1.1c0,0.2-0.1,0.4-0.2,0.6
			s-0.3,0.4-0.4,0.5l0.7,0.9l4-3.1l-0.7-0.9c-0.6,0.3-1,0.5-1.4,0.5c-0.4,0-0.6-0.1-0.8-0.4c-0.1-0.1-0.2-0.2-0.3-0.4
			c-0.1-0.2-0.3-0.6-0.6-1.1c-0.2-0.4-0.4-0.8-0.6-1.3s-0.4-0.9-0.6-1.3l3.3-2.6l3.5,2.8c0.1,0.1,0.2,0.2,0.3,0.3
			c0.1,0.1,0.1,0.1,0.2,0.2c0.1,0.2,0.1,0.5-0.2,0.8c-0.2,0.4-0.5,0.7-0.7,0.9l0.7,0.9l5.3-4.1L466.2,498.5z M443.3,491.4l-9.7,6.8
			l3.4,4.9l0.6-0.4c-0.4-0.8-0.7-1.8-0.9-2.8c-0.3-1.1-0.3-1.7-0.1-2c0.1-0.1,0.3-0.3,0.5-0.5c0.2-0.2,0.4-0.3,0.5-0.4l0.3-0.2
			l9.5,13.5c0.2,0.3,0.4,0.6,0.4,0.8c0.1,0.3,0.1,0.5,0,0.8c0,0.1-0.2,0.3-0.4,0.5c-0.2,0.2-0.4,0.4-0.5,0.5l0.7,0.9l5.6-3.9
			l-0.7-0.9c-0.2,0.1-0.4,0.2-0.7,0.2c-0.3,0.1-0.5,0.1-0.7,0.1c-0.3,0-0.5-0.1-0.7-0.3c-0.2-0.2-0.4-0.4-0.6-0.7l-9.4-13.4l0.3-0.2
			c0.2-0.1,0.4-0.2,0.6-0.4c0.2-0.1,0.4-0.2,0.6-0.3c0.3-0.1,0.9,0.1,1.8,0.7c0.9,0.6,1.7,1.2,2.3,1.8l0.6-0.4L443.3,491.4z
			 M443.7,514.9c-0.2,0.1-0.4,0.2-0.7,0.2c-0.3,0.1-0.5,0.1-0.6,0.1c-0.3,0-0.5-0.1-0.7-0.3c-0.2-0.2-0.4-0.4-0.6-0.7l-7.9-12.4
			c-0.2-0.3-0.3-0.6-0.4-0.8c-0.1-0.3-0.1-0.5,0.1-0.7c0.1-0.2,0.2-0.4,0.4-0.5c0.2-0.2,0.4-0.3,0.5-0.5l-0.6-1l-5.8,3.6l0.6,1
			c0.2-0.1,0.4-0.1,0.7-0.2c0.3-0.1,0.5-0.1,0.7-0.1c0.3,0,0.5,0.1,0.7,0.3c0.2,0.2,0.4,0.4,0.6,0.7l7.9,12.5
			c0.2,0.3,0.3,0.6,0.4,0.8c0.1,0.2,0,0.5-0.1,0.7c-0.1,0.1-0.2,0.3-0.4,0.5c-0.2,0.2-0.4,0.3-0.5,0.4l0.6,1l5.8-3.6L443.7,514.9z
			 M431.4,521.5c-0.2,0.6-0.6,1-1.2,1.4c-0.3,0.2-0.5,0.2-0.7,0.2c-0.2,0-0.4-0.1-0.7-0.2c-0.2-0.1-0.4-0.3-0.6-0.5
			c-0.2-0.2-0.4-0.5-0.5-0.8l-7.8-13.7c0.1-0.1,0.3-0.2,0.5-0.3c0.2-0.1,0.4-0.3,0.6-0.4c0.6-0.3,1.2-0.4,1.8-0.3
			c0.7,0.1,1.3,0.5,2,1c0.7,0.5,1.4,1.2,2.1,2.1c0.7,0.9,1.4,2,2.1,3.1c0.7,1.2,1.3,2.3,1.7,3.3c0.4,1,0.7,1.9,0.8,2.7
			C431.6,520.2,431.6,520.9,431.4,521.5 M422.8,505.2c-0.8,0.1-1.6,0.4-2.2,0.7l-5.7,3.2l0.6,1c0.1,0,0.3-0.1,0.6-0.2
			s0.5-0.1,0.8-0.1c0.3,0,0.5,0.2,0.7,0.4c0.2,0.2,0.4,0.4,0.5,0.7l7.3,12.8c0.2,0.3,0.3,0.6,0.3,0.8c0.1,0.3,0,0.5-0.1,0.7
			c0,0.1-0.2,0.2-0.4,0.4c-0.2,0.2-0.4,0.3-0.6,0.4l0.6,1l5.4-3.1c0.8-0.5,1.5-1.1,2.1-1.9c0.6-0.8,0.9-1.7,1.1-2.8
			c0.2-1.1,0.1-2.3-0.2-3.6c-0.3-1.3-0.9-2.8-1.7-4.3c-1-1.7-2-3.1-3.1-4.1c-1.1-1-2.2-1.6-3.2-2
			C424.6,505.2,423.7,505.1,422.8,505.2 M413.7,509.7l-9.8,4.8l0.5,1c0.1,0,0.3-0.1,0.6-0.1c0.3,0,0.5,0,0.7,0
			c0.3,0.1,0.5,0.2,0.7,0.4c0.2,0.2,0.3,0.4,0.5,0.7l6.5,13.2c0.2,0.3,0.3,0.6,0.3,0.9c0,0.2,0,0.5-0.1,0.7
			c-0.1,0.1-0.2,0.3-0.4,0.4c-0.2,0.2-0.4,0.3-0.5,0.4l0.5,1l10.3-5.1l-2.6-5.9l-0.6,0.3c0.1,0.5,0.2,1.2,0.4,2.3
			c0.1,1,0.2,1.8,0.1,2.4c0,0.2-0.1,0.4-0.2,0.6c-0.1,0.2-0.3,0.3-0.5,0.5c-0.2,0.1-0.4,0.3-0.6,0.4c-0.2,0.1-0.5,0.2-0.6,0.3
			c-0.4,0.2-0.7,0.3-1,0.4c-0.3,0.1-0.5,0-0.7-0.1c-0.2-0.1-0.4-0.3-0.6-0.6c-0.2-0.3-0.5-0.7-0.7-1.3L413,522l1.1-0.6
			c0.3-0.1,0.6-0.2,0.9-0.2c0.3,0,0.6,0.1,0.9,0.4c0.2,0.2,0.5,0.5,0.9,1c0.4,0.5,0.7,0.9,0.9,1.3l0.6-0.3l-3.8-7.8l-0.6,0.3
			c0.1,0.4,0.3,0.9,0.4,1.4c0.1,0.6,0.2,1,0.2,1.2c0,0.4-0.1,0.7-0.3,1c-0.2,0.2-0.4,0.4-0.7,0.6l-1.1,0.6l-3.5-7.2l1.6-0.8
			c0.2-0.1,0.4-0.2,0.7-0.3c0.3-0.1,0.5-0.2,0.7-0.2c0.4,0,1,0.2,1.7,0.7c0.7,0.5,1.3,1.1,1.8,1.8l0.6-0.3L413.7,509.7z
			 M401.6,525.1c-0.1,0.9-0.6,1.5-1.4,1.8l-0.6,0.3l-3.3-8l0.6-0.3c0.8-0.3,1.5-0.3,2.2,0.1c0.7,0.4,1.3,1.3,1.8,2.5
			C401.5,523,401.8,524.2,401.6,525.1 M411.8,532.5c-0.1,0-0.2,0.1-0.4,0.1c-0.2,0-0.4,0-0.5,0c-0.3,0-0.6-0.2-1.1-0.6
			c-0.5-0.4-0.9-0.7-1.2-1c-1-0.9-1.9-1.7-2.8-2.6s-1.7-1.6-2.4-2.2c0.7-0.8,1.2-1.8,1.3-2.8c0.1-1-0.1-2.2-0.7-3.5
			c-0.6-1.5-1.5-2.5-2.5-3c-1.1-0.4-2.3-0.4-3.7,0.2l-6.4,2.6l0.4,1.1c0.1,0,0.4,0,0.6-0.1c0.3,0,0.5,0,0.7,0
			c0.3,0.1,0.5,0.2,0.7,0.4c0.1,0.2,0.3,0.5,0.4,0.8l5.6,13.5c0.1,0.3,0.2,0.6,0.2,0.9c0,0.2,0,0.5-0.2,0.7
			c-0.1,0.1-0.2,0.3-0.5,0.4c-0.2,0.2-0.4,0.3-0.6,0.4l0.4,1.1l6-2.5l-0.4-1.1c-0.2,0-0.4,0.1-0.6,0.1c-0.2,0-0.4,0-0.6,0
			c-0.3-0.1-0.5-0.2-0.6-0.4c-0.2-0.2-0.3-0.5-0.5-0.8l-2.4-5.8l0.4-0.2c1.4,1.2,2.5,2.3,3.5,3.2c1,0.9,2.2,2.2,3.8,3.9l4.4-1.8
			L411.8,532.5z M394.5,540.8c0.4-0.5,0.8-1,1-1.7c0.2-0.6,0.4-1.3,0.5-2c0.1-0.7,0.1-1.6,0-2.5l-1-0.5c0,1.6-0.2,2.8-0.5,3.7
			c-0.4,0.9-0.9,1.5-1.7,1.8c-0.5,0.2-1.1,0.2-1.6,0c-0.5-0.2-1.1-0.6-1.7-1.2c-0.5-0.6-1.1-1.4-1.6-2.4c-0.6-1-1.1-2.3-1.7-3.9
			c-1-2.8-1.4-5-1.4-6.7c0-1.7,0.5-2.8,1.5-3.1c0.8-0.3,1.7,0,2.6,0.8c0.9,0.8,2,2.3,3.1,4.3l0.7-0.2l-2.6-7.2l-0.7,0.2l-0.2,0.9
			c-0.5-0.2-1-0.4-1.7-0.4c-0.6-0.1-1.3,0-1.9,0.2c-0.9,0.3-1.6,0.9-2.2,1.6c-0.6,0.8-1,1.7-1.3,2.9c-0.2,1.1-0.3,2.4-0.2,3.8
			c0.1,1.4,0.5,2.9,1,4.4c0.5,1.5,1.2,2.9,1.9,4.1c0.8,1.2,1.5,2.1,2.4,2.8c0.9,0.7,1.7,1.2,2.6,1.4c0.9,0.2,1.8,0.2,2.6-0.1
			C393.5,541.6,394.1,541.3,394.5,540.8 M381.8,545c0.4-0.4,0.8-1,1.1-1.6c0.3-0.6,0.5-1.2,0.6-2c0.1-0.7,0.2-1.6,0.2-2.5l-0.9-0.5
			c-0.1,1.6-0.3,2.8-0.7,3.7c-0.4,0.9-1,1.4-1.8,1.7c-0.5,0.2-1.1,0.1-1.6-0.1c-0.5-0.2-1.1-0.6-1.6-1.2c-0.5-0.6-1-1.4-1.5-2.5
			c-0.5-1.1-1-2.4-1.5-4c-0.8-2.8-1.2-5.1-1.1-6.8c0.1-1.7,0.7-2.7,1.7-3c0.8-0.2,1.7,0.1,2.6,0.9c0.9,0.9,1.9,2.4,2.9,4.5l0.7-0.2
			l-2.2-7.3l-0.7,0.2l-0.3,0.9c-0.5-0.2-1-0.4-1.6-0.5c-0.6-0.1-1.3-0.1-1.9,0.1c-0.9,0.3-1.7,0.8-2.3,1.5c-0.6,0.8-1.1,1.7-1.4,2.8
			c-0.3,1.1-0.4,2.4-0.3,3.8s0.3,2.9,0.8,4.4c0.5,1.6,1,2.9,1.7,4.2c0.7,1.2,1.4,2.2,2.2,2.9c0.8,0.7,1.7,1.2,2.6,1.5
			c0.9,0.3,1.8,0.3,2.6,0C380.8,545.7,381.4,545.4,381.8,545 M361.2,541.4l0.1-7.7l3.4,6.9L361.2,541.4z M372.6,546.3
			c-0.2,0-0.4,0-0.6,0c-0.2,0-0.4-0.1-0.6-0.2c-0.3-0.2-0.5-0.3-0.6-0.6c-0.2-0.2-0.3-0.4-0.5-0.7c-0.8-1.7-1.9-3.7-3.1-6.3
			c-1.2-2.5-2.9-6-5-10.3l-1.7,0.4c-0.1,3.4-0.1,6.5-0.2,9.4c-0.1,2.8-0.1,5.7-0.2,8.5c0,0.5,0,0.9-0.1,1.3s-0.2,0.7-0.4,1
			c-0.1,0.2-0.3,0.3-0.5,0.5c-0.2,0.1-0.4,0.2-0.6,0.3l0.2,1.1l4.9-1.1l-0.2-1.1c-0.7,0-1.1,0-1.5-0.2c-0.3-0.2-0.5-0.4-0.6-0.7
			c0-0.1,0-0.3-0.1-0.5c0-0.2-0.1-0.6-0.1-1.2c0-0.4,0-0.9,0-1.5c0-0.5,0-1,0-1.4l4.1-0.9l2,4c0.1,0.2,0.1,0.3,0.2,0.4
			c0,0.1,0.1,0.2,0.1,0.3c0,0.2-0.1,0.4-0.5,0.7c-0.4,0.2-0.7,0.4-1,0.5l0.2,1.1l6.5-1.5L372.6,546.3z M349.6,531.1l-10.8,1.6
			l0.2,1.1c0.1,0,0.4,0,0.6,0.1c0.3,0.1,0.5,0.1,0.7,0.2c0.3,0.1,0.4,0.3,0.5,0.5c0.1,0.2,0.2,0.5,0.2,0.8l2.1,14.5
			c0.1,0.4,0.1,0.7,0,0.9c0,0.2-0.2,0.5-0.4,0.7c-0.1,0.1-0.3,0.2-0.6,0.3c-0.3,0.1-0.5,0.2-0.6,0.2l0.2,1.1l11.4-1.7l-0.7-6.4
			l-0.6,0.1c0,0.5-0.2,1.3-0.4,2.3c-0.2,1-0.4,1.8-0.6,2.3c-0.1,0.2-0.2,0.4-0.4,0.5c-0.2,0.1-0.4,0.2-0.6,0.3
			c-0.2,0.1-0.4,0.1-0.7,0.2c-0.3,0.1-0.5,0.1-0.7,0.1c-0.4,0.1-0.8,0.1-1,0.1c-0.3,0-0.5-0.1-0.6-0.3c-0.2-0.2-0.3-0.4-0.4-0.8
			c-0.1-0.4-0.2-0.8-0.3-1.5l-0.9-5.9l1.3-0.2c0.3,0,0.6,0,0.9,0.1s0.5,0.3,0.8,0.6c0.2,0.2,0.4,0.6,0.6,1.2
			c0.2,0.6,0.4,1.1,0.5,1.5l0.7-0.1l-1.3-8.6l-0.7,0.1c0,0.4,0,0.9,0,1.5c-0.1,0.6-0.1,1-0.2,1.2c-0.2,0.4-0.4,0.7-0.6,0.8
			c-0.2,0.2-0.5,0.3-0.8,0.3l-1.2,0.2l-1.2-7.9l1.8-0.3c0.2,0,0.5-0.1,0.8-0.1c0.3,0,0.6,0,0.7,0c0.4,0.1,0.9,0.5,1.4,1.2
			c0.5,0.7,0.9,1.5,1.2,2.2l0.6-0.1L349.6,531.1z M333.4,542.2c-0.4,0.8-1,1.2-1.9,1.3l-0.7,0.1l-0.7-8.7l0.7-0.1
			c0.8-0.1,1.5,0.2,2,0.8c0.5,0.6,0.8,1.6,0.9,3C334,540.2,333.8,541.4,333.4,542.2 M340.9,552.3c-0.1,0-0.2,0-0.4-0.1
			c-0.2,0-0.4-0.1-0.5-0.1c-0.2-0.1-0.5-0.4-0.9-0.9c-0.4-0.5-0.6-1-0.8-1.3c-0.7-1.1-1.3-2.2-1.9-3.3c-0.6-1.1-1.2-2-1.6-2.9
			c1-0.6,1.7-1.3,2.1-2.3s0.6-2.1,0.4-3.6c-0.1-1.6-0.6-2.8-1.5-3.6c-0.9-0.7-2.1-1.1-3.6-0.9l-6.9,0.6l0.1,1.1
			c0.1,0,0.3,0.1,0.6,0.1c0.3,0.1,0.5,0.2,0.7,0.3c0.3,0.2,0.4,0.3,0.5,0.6c0.1,0.2,0.1,0.5,0.2,0.9l1.2,14.6c0,0.4,0,0.7,0,0.9
			c-0.1,0.2-0.2,0.5-0.4,0.6c-0.1,0.1-0.3,0.2-0.6,0.2c-0.3,0.1-0.5,0.1-0.6,0.2l0.1,1.1l6.5-0.5l-0.1-1.1c-0.2,0-0.4-0.1-0.6-0.1
			c-0.2-0.1-0.4-0.1-0.5-0.2c-0.2-0.1-0.4-0.3-0.5-0.6c-0.1-0.2-0.2-0.5-0.2-0.9l-0.5-6.3l0.5,0c0.9,1.6,1.7,3,2.4,4.2
			c0.6,1.2,1.5,2.8,2.4,4.9l4.7-0.4L340.9,552.3z M315.9,546.6l1.5-7.6l2,7.5L315.9,546.6z M326.1,553.6c-0.2,0-0.4-0.1-0.6-0.1
			c-0.2-0.1-0.4-0.2-0.6-0.3c-0.2-0.2-0.4-0.4-0.5-0.7c-0.1-0.2-0.2-0.5-0.3-0.8c-0.5-1.8-1.1-4-1.9-6.7c-0.7-2.7-1.7-6.4-3-11.1
			l-1.7,0.1c-0.7,3.3-1.4,6.4-1.9,9.2c-0.6,2.8-1.2,5.5-1.8,8.3c-0.1,0.5-0.2,0.9-0.4,1.2c-0.2,0.3-0.3,0.6-0.6,0.9
			c-0.1,0.2-0.3,0.3-0.6,0.4c-0.2,0.1-0.4,0.1-0.6,0.2l0,1.1l5-0.2l0-1.1c-0.7-0.1-1.1-0.2-1.4-0.4c-0.3-0.2-0.4-0.5-0.4-0.8
			c0-0.1,0-0.3,0-0.5c0-0.2,0.1-0.6,0.2-1.2c0.1-0.4,0.2-0.9,0.3-1.4c0.1-0.5,0.2-1,0.3-1.4l4.2-0.1l1.2,4.3c0,0.2,0.1,0.3,0.1,0.4
			c0,0.1,0,0.2,0,0.3c0,0.2-0.2,0.4-0.6,0.6c-0.4,0.2-0.8,0.3-1.1,0.3l0,1.1l6.7-0.2L326.1,553.6z M307.7,555.1
			c0.6-0.3,1.1-0.7,1.5-1.2c0.4-0.5,0.8-1,1.2-1.7c0.3-0.7,0.6-1.4,0.9-2.3l-0.7-0.8c-0.6,1.5-1.2,2.6-1.8,3.3
			c-0.7,0.7-1.4,1.1-2.2,1c-0.6,0-1.1-0.2-1.5-0.6c-0.4-0.4-0.8-0.9-1.1-1.7c-0.3-0.7-0.5-1.7-0.7-2.8c-0.2-1.2-0.2-2.6-0.2-4.2
			c0.1-2.9,0.4-5.2,1.1-6.8c0.6-1.6,1.5-2.4,2.5-2.3c0.9,0,1.6,0.6,2.2,1.7c0.6,1.1,1,2.8,1.4,5.2l0.8,0l0.2-7.6l-0.8,0l-0.6,0.8
			c-0.4-0.4-0.8-0.7-1.4-1c-0.6-0.3-1.2-0.5-1.8-0.5c-0.9,0-1.8,0.2-2.7,0.7c-0.8,0.5-1.6,1.3-2.2,2.2c-0.6,1-1.1,2.2-1.5,3.5
			c-0.4,1.4-0.6,2.9-0.6,4.5c-0.1,1.6,0.1,3.1,0.4,4.5c0.3,1.4,0.7,2.5,1.2,3.5c0.6,1,1.2,1.7,2,2.2c0.8,0.5,1.6,0.8,2.5,0.8
			C306.5,555.5,307.1,555.4,307.7,555.1 M297.4,553.6c-0.2,0-0.4-0.1-0.6-0.2s-0.4-0.2-0.6-0.3c-0.2-0.2-0.3-0.4-0.4-0.7
			c-0.1-0.3-0.1-0.6,0-0.9l1.4-14.7c0-0.3,0.1-0.6,0.2-0.9c0.1-0.3,0.3-0.5,0.5-0.6c0.2-0.1,0.4-0.1,0.6-0.2c0.2,0,0.4-0.1,0.6-0.1
			l0.1-1.1l-6.6-0.6l-0.1,1.1c0.1,0,0.3,0.1,0.6,0.3c0.2,0.1,0.4,0.3,0.6,0.4c0.2,0.2,0.3,0.4,0.4,0.7c0.1,0.2,0.1,0.5,0,0.9l-0.6,6
			l-5.2-0.5l0.6-6.2c0-0.3,0.1-0.6,0.2-0.9c0.1-0.3,0.3-0.5,0.5-0.6c0.1-0.1,0.3-0.1,0.6-0.2s0.5-0.1,0.7-0.1l0.1-1.1l-6.6-0.6
			l-0.1,1.1c0.1,0,0.3,0.1,0.6,0.2s0.5,0.3,0.6,0.4c0.2,0.2,0.3,0.4,0.4,0.7c0,0.2,0.1,0.5,0,0.9l-1.4,14.7c0,0.4-0.1,0.7-0.2,0.9
			s-0.3,0.4-0.5,0.5c-0.1,0.1-0.3,0.1-0.6,0.1c-0.3,0-0.5,0-0.6,0l-0.1,1.1l6.6,0.6l0.1-1.1c-0.2,0-0.4-0.1-0.6-0.2
			c-0.3-0.1-0.4-0.2-0.5-0.3c-0.2-0.2-0.3-0.4-0.4-0.7c-0.1-0.3-0.1-0.6,0-0.9l0.7-7l5.2,0.5l-0.7,7.1c0,0.4-0.1,0.7-0.2,0.9
			s-0.3,0.4-0.5,0.5c-0.1,0.1-0.3,0.1-0.6,0.1c-0.3,0-0.5,0-0.6,0l-0.1,1.1l6.6,0.6L297.4,553.6z M284,532.5l-11.8-1.7l-0.9,5.9
			l0.7,0.1c0.3-0.9,0.7-1.8,1.3-2.7c0.5-0.9,1-1.4,1.3-1.5c0.2,0,0.4,0,0.7,0c0.3,0,0.5,0,0.7,0.1l0.4,0.1L274,549
			c-0.1,0.4-0.1,0.7-0.2,0.9c-0.1,0.3-0.3,0.4-0.5,0.6c-0.1,0.1-0.3,0.1-0.6,0.1c-0.3,0-0.5,0-0.7,0l-0.2,1.1l6.8,1l0.2-1.1
			c-0.2-0.1-0.4-0.2-0.7-0.3c-0.3-0.1-0.5-0.3-0.6-0.4c-0.2-0.2-0.3-0.4-0.3-0.7c0-0.3,0-0.6,0-0.9l2.4-16.1l0.4,0.1
			c0.2,0,0.4,0.1,0.7,0.1c0.3,0.1,0.5,0.1,0.7,0.2c0.3,0.1,0.6,0.7,0.8,1.8c0.2,1.1,0.4,2,0.4,3l0.7,0.1L284,532.5z M269,544.5
			c-0.3,0.7-0.7,1.5-1.2,2.3c-0.5,0.8-0.9,1.4-1.3,1.9c-0.3,0.3-0.6,0.4-1,0.4c-0.4,0-0.9,0-1.3-0.1c-0.5-0.1-0.8-0.2-1.1-0.3
			c-0.3-0.1-0.4-0.3-0.5-0.5c-0.1-0.2-0.2-0.5-0.1-0.9c0-0.4,0.1-0.9,0.2-1.5l2.8-13.4c0.1-0.3,0.2-0.6,0.3-0.9
			c0.1-0.2,0.3-0.4,0.6-0.5c0.2-0.1,0.4-0.1,0.7-0.1c0.3,0,0.5,0,0.7,0l0.2-1.1l-6.6-1.4l-0.2,1.1c0.1,0.1,0.3,0.2,0.6,0.3
			c0.2,0.1,0.4,0.3,0.6,0.5c0.2,0.2,0.3,0.5,0.3,0.7c0,0.2,0,0.5-0.1,0.9l-3,14.4c-0.1,0.4-0.2,0.7-0.3,0.9
			c-0.1,0.2-0.3,0.4-0.5,0.5c-0.1,0-0.3,0.1-0.6,0.1c-0.3,0-0.5,0-0.7,0l-0.2,1.1l11.1,2.3l1.6-6.5L269,544.5z M248.7,538l3.6-6.8
			l-0.2,7.7L248.7,538z M256.5,547.6c-0.2-0.1-0.3-0.2-0.5-0.3c-0.2-0.1-0.3-0.3-0.5-0.5c-0.2-0.3-0.3-0.5-0.3-0.8
			c0-0.3-0.1-0.5-0.1-0.8c0-1.9,0.1-4.2,0.2-7c0.1-2.8,0.2-6.6,0.3-11.5l-1.7-0.4c-1.6,3-3.1,5.8-4.5,8.2c-1.4,2.5-2.7,5-4.1,7.5
			c-0.2,0.4-0.5,0.8-0.7,1.1c-0.2,0.3-0.5,0.5-0.8,0.7c-0.2,0.1-0.4,0.2-0.6,0.2c-0.3,0-0.5,0-0.7,0l-0.3,1.1l4.9,1.3l0.3-1.1
			c-0.6-0.3-1-0.5-1.2-0.8s-0.3-0.6-0.2-0.9c0-0.1,0.1-0.3,0.2-0.5c0.1-0.2,0.2-0.6,0.5-1.1c0.2-0.4,0.4-0.8,0.7-1.3
			c0.3-0.5,0.5-0.9,0.7-1.3l4.1,1.1l-0.1,4.4c0,0.2,0,0.3,0,0.4c0,0.1,0,0.2-0.1,0.3c-0.1,0.2-0.3,0.3-0.8,0.4c-0.4,0-0.8,0-1.1,0
			l-0.3,1.1l6.5,1.7L256.5,547.6z M247.2,524.7l-10.3-3.4l-0.4,1.1c0.1,0.1,0.3,0.2,0.5,0.4c0.2,0.2,0.4,0.3,0.5,0.5
			c0.2,0.3,0.3,0.5,0.2,0.7c0,0.2-0.1,0.5-0.2,0.9l-4.6,13.9c-0.1,0.4-0.2,0.6-0.4,0.8c-0.1,0.2-0.3,0.3-0.6,0.4c-0.1,0-0.3,0-0.6,0
			c-0.3,0-0.5-0.1-0.7-0.1l-0.4,1.1l10.9,3.6l2.3-6.1l-0.6-0.2c-0.3,0.4-0.7,1.1-1.3,1.9c-0.6,0.8-1.2,1.4-1.6,1.8
			c-0.2,0.1-0.4,0.2-0.6,0.3c-0.2,0-0.5,0-0.7,0c-0.2,0-0.5-0.1-0.7-0.2c-0.3-0.1-0.5-0.2-0.7-0.2c-0.4-0.1-0.7-0.3-0.9-0.4
			c-0.2-0.1-0.4-0.3-0.4-0.5c-0.1-0.2-0.1-0.5,0-0.9c0.1-0.4,0.2-0.8,0.4-1.4l1.9-5.7l1.2,0.4c0.3,0.1,0.6,0.3,0.8,0.5
			c0.2,0.2,0.3,0.5,0.4,0.9c0,0.3,0,0.7,0,1.3c-0.1,0.6-0.1,1.2-0.2,1.6l0.6,0.2l2.7-8.2l-0.6-0.2c-0.2,0.4-0.4,0.8-0.7,1.3
			c-0.3,0.5-0.6,0.8-0.8,1c-0.3,0.3-0.6,0.4-0.9,0.5c-0.3,0-0.6,0-0.9-0.1l-1.2-0.4l2.5-7.6l1.7,0.6c0.2,0.1,0.4,0.2,0.7,0.3
			c0.3,0.1,0.5,0.2,0.6,0.3c0.3,0.3,0.6,0.8,0.7,1.7c0.1,0.9,0.2,1.7,0.1,2.5l0.6,0.2L247.2,524.7z M228.9,539.4
			c-0.1-0.1-0.3-0.2-0.5-0.4c-0.2-0.2-0.4-0.3-0.5-0.5c-0.1-0.2-0.2-0.5-0.2-0.7c0-0.3,0.1-0.5,0.2-0.9l5.5-13.7
			c0.1-0.3,0.3-0.6,0.4-0.8c0.2-0.2,0.4-0.4,0.6-0.4c0.2,0,0.4,0,0.7,0c0.2,0,0.4,0.1,0.6,0.1l0.4-1.1l-6.2-2.5l-0.4,1.1
			c0.1,0.1,0.3,0.2,0.5,0.4c0.2,0.2,0.3,0.4,0.4,0.5c0.1,0.2,0.2,0.5,0.2,0.7c0,0.2-0.1,0.5-0.2,0.8l-2.3,5.6l-4.9-2l2.3-5.8
			c0.1-0.3,0.3-0.6,0.4-0.8c0.2-0.2,0.4-0.4,0.6-0.4c0.1,0,0.4,0,0.6,0c0.3,0,0.5,0.1,0.6,0.1l0.4-1.1l-6.2-2.5l-0.4,1.1
			c0.1,0.1,0.3,0.2,0.5,0.4c0.2,0.2,0.4,0.4,0.5,0.6c0.1,0.2,0.2,0.5,0.2,0.7c0,0.2-0.1,0.5-0.2,0.8l-5.5,13.7
			c-0.1,0.3-0.3,0.6-0.5,0.8c-0.2,0.2-0.4,0.3-0.6,0.4c-0.1,0-0.4,0-0.6,0c-0.3-0.1-0.5-0.1-0.6-0.1l-0.4,1.1l6.2,2.5l0.4-1.1
			c-0.1-0.1-0.3-0.2-0.5-0.4c-0.2-0.2-0.4-0.3-0.4-0.4c-0.1-0.2-0.2-0.5-0.2-0.7c0-0.3,0.1-0.6,0.2-0.9l2.6-6.5l4.9,2l-2.7,6.7
			c-0.1,0.3-0.3,0.6-0.5,0.8c-0.2,0.2-0.4,0.3-0.6,0.4c-0.1,0-0.3,0-0.6,0c-0.3-0.1-0.5-0.1-0.6-0.2l-0.4,1.1l6.2,2.5L228.9,539.4z
			 M208.9,519c-0.8,0.5-1.5,0.5-2.3,0.1l-0.6-0.3l3.9-7.8l0.6,0.3c0.8,0.4,1.2,1,1.3,1.7c0.1,0.8-0.1,1.8-0.8,3
			C210.4,517.5,209.7,518.5,208.9,519 M210,531.5c-0.1,0-0.2-0.1-0.4-0.3c-0.2-0.1-0.3-0.3-0.4-0.4c-0.2-0.2-0.2-0.6-0.3-1.3
			c0-0.6,0-1.2,0-1.6c0-1.3,0.1-2.6,0.1-3.8c0-1.2,0.1-2.3,0.1-3.3c1.1,0,2.1-0.3,2.9-0.8c0.8-0.6,1.6-1.5,2.2-2.8
			c0.7-1.5,0.9-2.8,0.6-3.8c-0.3-1.1-1.2-2-2.6-2.7l-6.2-3.1l-0.5,1c0.1,0.1,0.3,0.2,0.4,0.4c0.2,0.2,0.3,0.4,0.4,0.6
			c0.1,0.3,0.2,0.5,0.1,0.8c0,0.2-0.2,0.5-0.3,0.8l-6.6,13.1c-0.2,0.3-0.3,0.6-0.5,0.8c-0.2,0.2-0.4,0.3-0.7,0.3
			c-0.1,0-0.3,0-0.6-0.1c-0.3-0.1-0.5-0.1-0.6-0.2l-0.5,1l5.8,3l0.5-1c-0.1-0.1-0.3-0.2-0.5-0.4c-0.2-0.2-0.3-0.3-0.4-0.4
			c-0.1-0.2-0.2-0.5-0.1-0.8c0-0.3,0.1-0.5,0.3-0.9l2.8-5.6l0.4,0.2c0,1.8-0.1,3.4-0.2,4.8c-0.1,1.4-0.2,3.2-0.5,5.4l4.2,2.1
			L210,531.5z M191.4,521.3c-0.6,0.2-1.1,0.2-1.6-0.1c-0.5-0.3-0.8-0.7-0.9-1.4c-0.1-0.6,0-1.4,0.2-2.3c0.2-0.9,0.6-1.8,1-2.9
			c0.5-1.1,1-2.1,1.7-3.3c1.5-2.6,3-4.6,4.3-5.7c1.3-1.2,2.4-1.5,3.3-1c0.5,0.3,0.8,0.8,0.9,1.5c0.1,0.7,0,1.5-0.2,2.3
			c-0.2,0.9-0.6,1.9-1.1,2.9s-1,2.1-1.6,3.1c-0.7,1.2-1.4,2.3-2.1,3.2c-0.7,0.9-1.3,1.7-2,2.3C192.6,520.6,192,521,191.4,521.3
			 M202,505.4c-0.4-0.8-1.1-1.5-1.8-2c-0.8-0.5-1.7-0.7-2.6-0.6c-1,0-2,0.3-3,0.9c-1,0.6-2,1.3-3,2.4c-1,1-1.9,2.3-2.8,3.7
			c-0.8,1.4-1.4,2.8-1.8,4.1c-0.4,1.3-0.5,2.5-0.5,3.6c0,1.1,0.3,2.1,0.7,2.9c0.4,0.8,1,1.5,1.8,1.9c1,0.6,1.9,0.8,2.9,0.7
			c1-0.1,2-0.4,3-1c1-0.6,2-1.4,2.9-2.4c0.9-1,1.8-2.2,2.6-3.5c0.9-1.5,1.5-2.9,1.8-4.2c0.4-1.3,0.5-2.5,0.5-3.7
			C202.6,507.2,202.4,506.2,202,505.4 M193.7,500.3l-9.2-6.1l-0.6,1c0.1,0.1,0.2,0.3,0.4,0.5c0.2,0.2,0.3,0.4,0.4,0.6
			c0.1,0.3,0.1,0.5,0,0.8c-0.1,0.2-0.2,0.5-0.4,0.8l-8.1,12.2c-0.2,0.3-0.4,0.6-0.6,0.7c-0.2,0.2-0.4,0.2-0.7,0.2
			c-0.1,0-0.3,0-0.6-0.2c-0.3-0.1-0.5-0.2-0.6-0.3l-0.6,1l5.5,3.7l0.6-1c-0.2-0.2-0.3-0.3-0.5-0.5s-0.2-0.3-0.3-0.5
			c-0.1-0.3-0.1-0.5,0-0.8c0.1-0.3,0.2-0.5,0.4-0.8l3.8-5.7l1,0.7c0.3,0.2,0.5,0.4,0.7,0.7c0.1,0.3,0.2,0.6,0.1,0.9
			c0,0.2-0.1,0.7-0.4,1.3c-0.2,0.6-0.4,1.1-0.7,1.5l0.5,0.4l4.9-7.3l-0.5-0.4c-0.3,0.3-0.6,0.7-1,1.1c-0.4,0.4-0.8,0.7-1,0.8
			c-0.4,0.2-0.7,0.2-1,0.2c-0.3,0-0.6-0.1-0.9-0.3l-1-0.7l4.5-6.8l1.6,1.1c0.2,0.1,0.4,0.3,0.6,0.5c0.2,0.2,0.4,0.3,0.5,0.5
			c0.3,0.3,0.3,0.9,0.2,1.9c-0.2,1-0.4,1.9-0.7,2.6l0.6,0.4L193.7,500.3z M181.3,492l-3.6-2.8l-0.7,0.9c0.4,0.4,0.6,0.7,0.7,1
			c0.1,0.3,0,0.6-0.2,0.8c-0.2,0.2-0.8,0.6-1.8,1.3c-1,0.7-2.9,1.8-5.6,3.5c0.5-1.5,0.9-2.8,1.3-3.9c0.4-1.1,0.7-2,0.9-2.6
			c0.2-0.7,0.4-1.1,0.6-1.5c0.1-0.3,0.2-0.5,0.3-0.6c0.1-0.2,0.3-0.2,0.6-0.2c0.3,0,0.6,0.2,1.2,0.6l0.7-0.9l-5.6-4.3l-0.7,0.9
			c0.1,0.1,0.3,0.3,0.4,0.5s0.2,0.4,0.2,0.6c0,0.3,0,0.6,0,1c0,0.4-0.2,0.8-0.3,1.4c-0.3,1-0.7,2.2-1.1,3.4
			c-0.4,1.2-0.8,2.4-1.3,3.8c-0.2,0.5-0.3,0.8-0.4,1.1c-0.1,0.3-0.2,0.5-0.3,0.7c-0.1,0.2-0.2,0.3-0.3,0.5c-0.1,0.2-0.3,0.4-0.5,0.7
			l-2.2,2.9c-0.2,0.3-0.5,0.5-0.7,0.7c-0.2,0.2-0.5,0.2-0.7,0.2c-0.1,0-0.4-0.1-0.6-0.2c-0.3-0.1-0.5-0.2-0.6-0.3l-0.7,0.9l5.4,4.2
			l0.7-0.9c-0.1-0.1-0.2-0.3-0.4-0.6c-0.2-0.3-0.3-0.5-0.3-0.6c-0.1-0.3-0.1-0.5,0-0.8c0.1-0.3,0.3-0.5,0.5-0.8l1.8-2.3
			c0.7-0.9,1.2-1.4,1.5-1.8c0.3-0.3,0.9-0.7,1.6-1.2c1.2-0.7,2.3-1.4,3.3-2c1-0.6,1.9-1.2,2.8-1.7c0.4-0.2,0.8-0.4,1.2-0.6
			c0.4-0.2,0.7-0.3,1.1-0.3c0.2,0,0.4,0,0.6,0c0.2,0,0.4,0.1,0.6,0.2L181.3,492z M170.9,483.9l-8.9-7.8l-3.9,4.5l0.5,0.4
			c0.7-0.6,1.6-1.1,2.5-1.6c1-0.5,1.6-0.7,1.9-0.5c0.2,0.1,0.4,0.2,0.6,0.4c0.2,0.2,0.4,0.3,0.6,0.4l0.3,0.3l-10.9,12.4
			c-0.2,0.3-0.5,0.5-0.7,0.6c-0.2,0.1-0.5,0.2-0.8,0.2c-0.1,0-0.3-0.1-0.6-0.3s-0.5-0.3-0.6-0.4l-0.8,0.9l5.1,4.5l0.8-0.9
			c-0.1-0.2-0.3-0.4-0.4-0.6c-0.1-0.3-0.2-0.5-0.3-0.6c-0.1-0.3,0-0.5,0.1-0.8c0.1-0.3,0.3-0.5,0.5-0.8l10.8-12.3l0.3,0.3
			c0.1,0.1,0.3,0.3,0.5,0.5c0.2,0.2,0.3,0.4,0.4,0.5c0.2,0.3,0.1,0.9-0.3,2c-0.4,1-0.8,1.9-1.2,2.7l0.5,0.4L170.9,483.9z M148.1,490
			c-0.1-0.1-0.3-0.3-0.4-0.6c-0.1-0.3-0.2-0.5-0.3-0.6c-0.1-0.3,0-0.5,0.1-0.7c0.1-0.2,0.3-0.5,0.5-0.7l10.1-10.7
			c0.2-0.2,0.5-0.4,0.7-0.6c0.2-0.1,0.5-0.2,0.7-0.1c0.2,0.1,0.4,0.1,0.6,0.3s0.4,0.3,0.6,0.4l0.8-0.8l-5-4.7l-0.8,0.8
			c0.1,0.2,0.2,0.4,0.4,0.6s0.2,0.5,0.2,0.6c0.1,0.3,0,0.5-0.1,0.8c-0.1,0.2-0.3,0.5-0.5,0.7l-10.1,10.7c-0.3,0.3-0.5,0.5-0.7,0.6
			c-0.2,0.1-0.5,0.2-0.7,0.1c-0.1,0-0.3-0.1-0.6-0.3c-0.2-0.2-0.4-0.3-0.6-0.4l-0.8,0.8l5,4.7L148.1,490z M145.8,472.8
			c-0.9,0.2-1.6,0-2.2-0.6l-0.5-0.5l6.3-6l0.5,0.5c0.6,0.6,0.8,1.3,0.7,2.1c-0.1,0.8-0.7,1.6-1.7,2.6
			C147.7,471.9,146.7,472.6,145.8,472.8 M142.7,485c-0.1-0.1-0.1-0.2-0.2-0.4c-0.1-0.2-0.2-0.3-0.2-0.5c-0.1-0.3,0-0.7,0.2-1.3
			c0.2-0.6,0.3-1.1,0.5-1.5c0.5-1.2,0.9-2.4,1.4-3.6c0.5-1.2,0.9-2.2,1.2-3.1c1.1,0.4,2.1,0.4,3.1,0.2s2-0.9,3-1.9
			c1.2-1.1,1.8-2.3,1.8-3.4c0-1.1-0.5-2.3-1.6-3.4l-4.8-5l-0.8,0.8c0.1,0.1,0.2,0.3,0.3,0.6c0.1,0.2,0.2,0.5,0.2,0.7
			c0,0.3,0,0.5-0.1,0.8c-0.1,0.2-0.3,0.4-0.6,0.7l-10.6,10.2c-0.3,0.3-0.5,0.4-0.7,0.6c-0.2,0.1-0.5,0.1-0.7,0.1
			c-0.1,0-0.3-0.1-0.5-0.3c-0.2-0.2-0.4-0.3-0.5-0.4l-0.8,0.8l4.5,4.7l0.8-0.8c-0.1-0.1-0.2-0.3-0.3-0.5c-0.1-0.2-0.2-0.4-0.2-0.5
			c0-0.3,0-0.5,0.1-0.7c0.1-0.2,0.3-0.5,0.6-0.7l4.5-4.4l0.3,0.3c-0.6,1.7-1.2,3.2-1.7,4.5c-0.5,1.3-1.3,2.9-2.2,5l3.3,3.4
			L142.7,485z M128.6,469.2c-0.6,0-1.1-0.2-1.5-0.6c-0.4-0.4-0.5-1-0.4-1.6c0.1-0.6,0.4-1.3,0.9-2.1c0.5-0.8,1.1-1.5,1.9-2.4
			c0.8-0.8,1.7-1.7,2.7-2.5c2.3-2,4.3-3.3,5.9-4c1.6-0.7,2.8-0.6,3.5,0.2c0.4,0.5,0.5,1,0.4,1.7c-0.1,0.7-0.5,1.4-1,2.1
			c-0.5,0.8-1.2,1.6-2,2.4c-0.8,0.8-1.7,1.6-2.6,2.4c-1.1,0.9-2.1,1.7-3,2.4c-0.9,0.6-1.8,1.2-2.7,1.5
			C130,469,129.2,469.2,128.6,469.2 M143.8,457.6c-0.1-0.9-0.5-1.8-1.1-2.5c-0.6-0.7-1.4-1.2-2.3-1.5c-0.9-0.3-2-0.3-3.1-0.2
			c-1.1,0.2-2.3,0.6-3.6,1.2c-1.3,0.6-2.6,1.5-3.8,2.6c-1.2,1.1-2.3,2.2-3,3.3c-0.8,1.1-1.3,2.2-1.6,3.3c-0.3,1.1-0.4,2.1-0.3,3
			c0.1,0.9,0.5,1.7,1.1,2.4c0.7,0.8,1.6,1.4,2.5,1.6c1,0.2,2,0.2,3.2,0c1.1-0.2,2.3-0.6,3.5-1.3c1.2-0.7,2.4-1.5,3.6-2.5
			c1.3-1.1,2.3-2.2,3.1-3.4c0.8-1.1,1.3-2.2,1.6-3.3C143.8,459.6,143.9,458.6,143.8,457.6 M121.7,461.7c-0.1-0.1-0.2-0.3-0.3-0.6
			c-0.1-0.3-0.1-0.5-0.1-0.6c0-0.3,0.1-0.5,0.2-0.7c0.2-0.2,0.4-0.4,0.7-0.6l11.9-8.8c0.3-0.2,0.5-0.3,0.8-0.4
			c0.3-0.1,0.5-0.1,0.7,0c0.2,0.1,0.4,0.2,0.6,0.4c0.2,0.1,0.3,0.3,0.5,0.4l0.9-0.7l-3.9-5.3l-0.9,0.7c0.1,0.1,0.1,0.3,0.2,0.6
			c0.1,0.3,0.1,0.5,0.1,0.7c0,0.3-0.1,0.5-0.2,0.7c-0.1,0.2-0.4,0.4-0.6,0.6l-4.9,3.6l-3.1-4.2l5-3.7c0.3-0.2,0.5-0.3,0.8-0.4
			c0.3-0.1,0.5-0.1,0.8,0c0.1,0.1,0.3,0.2,0.5,0.3c0.2,0.2,0.4,0.3,0.5,0.4l0.9-0.7l-3.9-5.3l-0.9,0.7c0.1,0.1,0.1,0.3,0.2,0.6
			c0.1,0.3,0.1,0.5,0.1,0.7c0,0.3-0.1,0.5-0.2,0.7c-0.1,0.2-0.4,0.4-0.6,0.6l-11.8,8.7c-0.3,0.2-0.6,0.4-0.8,0.4
			c-0.3,0.1-0.5,0.1-0.7,0c-0.1-0.1-0.3-0.2-0.5-0.4c-0.2-0.2-0.4-0.3-0.5-0.5l-0.9,0.7l3.9,5.3l0.9-0.7c-0.1-0.1-0.2-0.4-0.3-0.6
			c-0.1-0.3-0.1-0.5-0.1-0.6c0-0.2,0.1-0.5,0.2-0.7c0.2-0.2,0.4-0.4,0.6-0.6l5.6-4.2l3.1,4.2l-5.8,4.3c-0.3,0.2-0.6,0.4-0.8,0.4
			c-0.2,0.1-0.5,0.1-0.7,0c-0.1,0-0.3-0.2-0.5-0.4c-0.2-0.2-0.3-0.4-0.4-0.5l-0.9,0.7l3.9,5.3L121.7,461.7z M128.5,437.7l-6.5-10
			l-5,3.2l0.4,0.6c0.8-0.3,1.8-0.6,2.9-0.8c1.1-0.2,1.7-0.2,2,0c0.1,0.1,0.3,0.3,0.5,0.5c0.2,0.2,0.3,0.4,0.4,0.6l0.2,0.3l-13.8,9
			c-0.3,0.2-0.6,0.3-0.8,0.4c-0.3,0.1-0.5,0.1-0.8,0c-0.1,0-0.3-0.2-0.5-0.4c-0.2-0.2-0.4-0.4-0.5-0.5l-1,0.6l3.7,5.7l1-0.6
			c-0.1-0.2-0.1-0.4-0.2-0.7c-0.1-0.3-0.1-0.5-0.1-0.7c0-0.3,0.1-0.5,0.3-0.7c0.2-0.2,0.4-0.4,0.7-0.6l13.7-8.9l0.2,0.3
			c0.1,0.2,0.2,0.4,0.3,0.6c0.1,0.2,0.2,0.5,0.3,0.6c0.1,0.3-0.1,0.9-0.8,1.8c-0.6,0.9-1.3,1.6-1.9,2.3l0.4,0.6L128.5,437.7z
			 M122.1,428l-2.6-4.6l-1,0.6c0,0.2,0.1,0.4,0.1,0.8c0,0.4,0,0.7-0.1,1c-0.1,0.3-0.4,0.7-0.9,1.1c-0.5,0.4-1.3,0.9-2.4,1.5
			l-6.1,3.5c-1.8,1-3.2,1.5-4.4,1.5c-1.2,0-2-0.4-2.5-1.3c-0.5-0.9-0.5-1.8,0.1-2.7c0.6-0.9,1.7-1.9,3.5-2.9l9.1-5.2
			c0.3-0.2,0.6-0.3,0.9-0.4c0.3-0.1,0.5,0,0.7,0.1c0.2,0.1,0.4,0.2,0.5,0.4c0.1,0.1,0.3,0.3,0.4,0.4l1-0.5l-3.2-5.6l-1,0.5
			c0,0.1,0.1,0.3,0.1,0.5c0,0.2,0,0.4,0,0.6c-0.1,0.3-0.2,0.5-0.4,0.7c-0.2,0.2-0.4,0.4-0.7,0.5l-9.3,5.2c-2.1,1.2-3.5,2.5-4.2,4
			c-0.7,1.5-0.6,3,0.3,4.5c0.7,1.3,1.9,2,3.6,2.1c1.7,0.1,3.5-0.4,5.5-1.5l6.7-3.8c1.1-0.6,2-1.1,2.6-1.3c0.6-0.2,1.1-0.3,1.4-0.2
			c0.3,0.1,0.6,0.2,0.9,0.4c0.2,0.2,0.4,0.4,0.5,0.5L122.1,428z M99.8,412.5l7.5-1.7l-6,4.9L99.8,412.5z M97.6,424.7
			c-0.1-0.2-0.1-0.4-0.1-0.6c0-0.2,0-0.4,0.1-0.7c0.1-0.3,0.2-0.5,0.4-0.7c0.2-0.2,0.4-0.4,0.6-0.6c1.4-1.2,3.2-2.7,5.4-4.5
			c2.2-1.8,5.1-4.2,8.9-7.3l-0.8-1.6c-3.3,0.7-6.4,1.4-9.2,2c-2.8,0.6-5.5,1.2-8.3,1.8c-0.5,0.1-0.9,0.2-1.3,0.2
			c-0.4,0-0.7-0.1-1-0.2c-0.2-0.1-0.4-0.2-0.6-0.4c-0.2-0.2-0.3-0.3-0.4-0.5l-1,0.5l2.2,4.5l1-0.5c-0.2-0.6-0.3-1.1-0.2-1.5
			c0.1-0.3,0.3-0.6,0.5-0.7c0.1,0,0.2-0.1,0.5-0.2c0.2-0.1,0.6-0.2,1.2-0.3c0.4-0.1,0.9-0.2,1.4-0.4c0.5-0.1,1-0.2,1.4-0.3l1.9,3.8
			l-3.4,2.8c-0.1,0.1-0.2,0.2-0.3,0.2c-0.1,0-0.2,0.1-0.2,0.1c-0.2,0.1-0.5,0-0.8-0.3c-0.3-0.3-0.6-0.6-0.7-0.9l-1,0.5l2.9,6
			L97.6,424.7z M94.3,404.6c-0.8,0.1-1.6,0.2-2.6,0.2c-1,0.1-1.7,0-2.3-0.1c-0.4-0.1-0.7-0.3-0.9-0.6c-0.2-0.4-0.5-0.8-0.6-1.2
			c-0.2-0.4-0.3-0.8-0.3-1.1c-0.1-0.3,0-0.5,0.1-0.7c0.1-0.2,0.3-0.4,0.6-0.6c0.3-0.2,0.8-0.4,1.4-0.6l12.7-5.1
			c0.3-0.1,0.6-0.2,0.9-0.2c0.3,0,0.5,0,0.7,0.2c0.2,0.1,0.3,0.3,0.5,0.5s0.3,0.4,0.4,0.6l1.1-0.4l-2.5-6.3l-1.1,0.4
			c0,0.2,0,0.4,0.1,0.6c0,0.3,0,0.5-0.1,0.7c-0.1,0.3-0.2,0.5-0.4,0.7c-0.2,0.1-0.4,0.3-0.8,0.4l-13.6,5.5c-0.4,0.1-0.7,0.2-0.9,0.2
			c-0.3,0-0.5,0-0.7-0.2c-0.1-0.1-0.2-0.2-0.4-0.4c-0.2-0.2-0.3-0.4-0.4-0.6L84,397l4.2,10.5l6.3-2.3L94.3,404.6z M88.5,384l7.7-0.7
			l-6.6,4.1L88.5,384z M84.7,395.8c0-0.2-0.1-0.4,0-0.6c0-0.2,0.1-0.4,0.2-0.6c0.1-0.3,0.3-0.5,0.5-0.7c0.2-0.2,0.4-0.4,0.7-0.5
			c1.6-1,3.5-2.2,5.9-3.7c2.4-1.5,5.7-3.5,9.8-6l-0.5-1.6c-3.4,0.3-6.5,0.5-9.4,0.8c-2.8,0.2-5.7,0.5-8.5,0.7c-0.5,0-0.9,0-1.3,0
			c-0.4,0-0.7-0.1-1-0.3c-0.2-0.1-0.4-0.2-0.5-0.4c-0.2-0.2-0.3-0.4-0.3-0.6l-1.1,0.4l1.6,4.8l1.1-0.4c-0.1-0.6-0.1-1.1,0-1.5
			c0.1-0.3,0.3-0.6,0.6-0.6c0.1,0,0.3-0.1,0.5-0.1c0.2-0.1,0.6-0.1,1.2-0.2c0.4-0.1,0.9-0.1,1.5-0.2c0.5-0.1,1-0.1,1.4-0.1l1.3,4
			l-3.8,2.4c-0.1,0.1-0.3,0.2-0.4,0.2c-0.1,0-0.2,0.1-0.2,0.1c-0.2,0.1-0.5-0.1-0.7-0.4c-0.3-0.4-0.5-0.7-0.6-1l-1.1,0.4l2.1,6.4
			L84.7,395.8z M88.9,373.3c-0.8-0.3-1.4-0.8-1.6-1.6l-0.2-0.6l8.4-2.2l0.2,0.7c0.2,0.8,0.1,1.5-0.4,2.1c-0.5,0.6-1.4,1.1-2.8,1.4
			C90.9,373.5,89.7,373.5,88.9,373.3 M80.2,382.4c0-0.1,0-0.2,0-0.4c0-0.2,0-0.4,0-0.5c0.1-0.3,0.3-0.6,0.8-1
			c0.5-0.4,0.8-0.8,1.2-1.1c1-0.8,2-1.7,2.9-2.5c1-0.8,1.8-1.5,2.5-2.1c0.7,0.8,1.6,1.4,2.6,1.6c1,0.3,2.2,0.2,3.6-0.2
			c1.6-0.4,2.7-1.1,3.3-2.1c0.6-1,0.7-2.2,0.3-3.7l-1.8-6.7l-1.1,0.3c0,0.1,0,0.4,0,0.6c0,0.3-0.1,0.5-0.1,0.7
			c-0.1,0.3-0.3,0.5-0.5,0.6c-0.2,0.1-0.5,0.2-0.8,0.3L78.8,370c-0.4,0.1-0.7,0.1-0.9,0.1c-0.3,0-0.5-0.1-0.7-0.3
			c-0.1-0.1-0.2-0.3-0.3-0.5c-0.1-0.3-0.2-0.5-0.3-0.6l-1.1,0.3l1.7,6.3l1.1-0.3c0-0.2,0-0.4,0-0.6c0-0.2,0.1-0.4,0.1-0.6
			c0.1-0.3,0.3-0.5,0.5-0.6c0.2-0.1,0.5-0.3,0.8-0.3l6.1-1.6l0.1,0.5c-1.4,1.2-2.6,2.2-3.7,3.1c-1.1,0.8-2.5,1.9-4.4,3.2l1.2,4.6
			L80.2,382.4z M95.3,362.2L93,351.6l-1.1,0.2c0,0.1,0,0.4-0.1,0.6c0,0.3-0.1,0.5-0.2,0.7c-0.1,0.3-0.3,0.5-0.5,0.6
			c-0.2,0.1-0.5,0.2-0.8,0.3l-14.4,3c-0.4,0.1-0.7,0.1-0.9,0.1c-0.2,0-0.5-0.1-0.7-0.3c-0.1-0.1-0.2-0.3-0.3-0.5
			c-0.1-0.3-0.2-0.5-0.3-0.6l-1.1,0.2l2.4,11.3l6.4-1.1l-0.1-0.6c-0.5,0-1.3-0.1-2.3-0.2c-1-0.1-1.8-0.3-2.3-0.5
			c-0.2-0.1-0.4-0.2-0.5-0.4c-0.1-0.2-0.3-0.4-0.4-0.6c-0.1-0.2-0.2-0.4-0.2-0.7c-0.1-0.3-0.1-0.5-0.2-0.7c-0.1-0.4-0.1-0.8-0.1-1
			c0-0.3,0.1-0.5,0.2-0.7c0.2-0.2,0.4-0.3,0.8-0.5c0.3-0.1,0.8-0.3,1.4-0.4l5.9-1.2l0.3,1.2c0.1,0.3,0.1,0.6,0,0.9
			c-0.1,0.3-0.3,0.6-0.6,0.8c-0.2,0.2-0.6,0.4-1.2,0.7c-0.6,0.3-1.1,0.5-1.5,0.6l0.1,0.6l8.5-1.8l-0.1-0.6c-0.4,0-0.9,0.1-1.5,0
			c-0.6,0-1-0.1-1.2-0.1c-0.4-0.1-0.7-0.3-0.9-0.5c-0.2-0.2-0.3-0.5-0.4-0.8l-0.3-1.2l7.8-1.7l0.4,1.7c0,0.2,0.1,0.4,0.1,0.8
			c0.1,0.3,0.1,0.6,0,0.7c-0.1,0.4-0.4,0.9-1.1,1.5c-0.7,0.6-1.4,1-2.2,1.3l0.1,0.6L95.3,362.2z M92.9,351.3l-0.8-5.2l-1.1,0.2
			c0,0.2-0.1,0.5-0.2,0.8c-0.1,0.3-0.3,0.6-0.5,0.8c-0.3,0.3-0.7,0.5-1.3,0.7c-0.6,0.2-1.5,0.4-2.7,0.6l-7.8,1.1l12.9-8.7l-0.7-4.6
			l-1.2,0.2c-0.1,0.3-0.2,0.7-0.3,1c-0.2,0.3-0.4,0.6-0.7,0.8c-0.3,0.2-0.6,0.4-1,0.6c-0.4,0.2-0.9,0.3-1.4,0.3l-9.7,1.4
			c-1.3,0.2-2.3,0.3-2.9,0.3s-1-0.1-1.3-0.3c-0.3-0.2-0.5-0.4-0.6-0.6c-0.2-0.3-0.3-0.5-0.3-0.7l-1.1,0.2l0.8,5.2l1.1-0.2
			c0-0.2,0.1-0.5,0.2-0.9c0.1-0.4,0.3-0.6,0.5-0.8c0.3-0.3,0.7-0.5,1.3-0.7s1.5-0.4,2.7-0.5l9.7-1.4l-14.8,9.9l0.2,1.5l14.7-2.2
			c1.2-0.2,2.2-0.3,2.8-0.3c0.6,0,1.1,0.1,1.4,0.3c0.3,0.2,0.6,0.4,0.7,0.7c0.1,0.3,0.2,0.5,0.3,0.7L92.9,351.3z M90.8,335.9
			l-0.9-10.9l-1.1,0.1c0,0.1-0.1,0.4-0.1,0.6c-0.1,0.3-0.2,0.5-0.3,0.7c-0.2,0.3-0.4,0.4-0.6,0.5c-0.2,0.1-0.5,0.1-0.9,0.2
			l-14.6,1.2c-0.4,0-0.7,0-0.9,0c-0.2-0.1-0.5-0.2-0.6-0.4c-0.1-0.1-0.2-0.3-0.3-0.6c-0.1-0.3-0.1-0.5-0.2-0.6l-1.1,0.1l0.9,11.5
			l6.5-0.3l-0.1-0.6c-0.5-0.1-1.2-0.2-2.3-0.5c-1-0.3-1.8-0.5-2.3-0.8c-0.2-0.1-0.3-0.2-0.5-0.4c-0.1-0.2-0.2-0.4-0.3-0.7
			c-0.1-0.2-0.1-0.5-0.1-0.7c0-0.3-0.1-0.5-0.1-0.7c0-0.4,0-0.8,0-1c0-0.3,0.1-0.5,0.3-0.6c0.2-0.2,0.5-0.3,0.8-0.4
			c0.4-0.1,0.9-0.2,1.5-0.2l6-0.5l0.1,1.3c0,0.3,0,0.6-0.1,0.9c-0.1,0.3-0.3,0.5-0.7,0.7c-0.2,0.1-0.6,0.3-1.2,0.5
			c-0.6,0.2-1.1,0.3-1.5,0.4l0.1,0.7l8.6-0.7l-0.1-0.7c-0.4,0-0.9-0.1-1.5-0.1c-0.6-0.1-1-0.2-1.2-0.3c-0.4-0.2-0.6-0.4-0.8-0.6
			c-0.1-0.2-0.2-0.5-0.3-0.8l-0.1-1.3l8-0.7l0.1,1.8c0,0.2,0,0.5,0,0.8c0,0.3,0,0.6-0.1,0.7c-0.1,0.4-0.6,0.9-1.3,1.3
			c-0.8,0.5-1.5,0.8-2.3,1.1l0.1,0.7L90.8,335.9z M78.7,325.2l-0.2-6.4l-1.1,0c0,0.2-0.1,0.4-0.2,0.7c-0.1,0.3-0.2,0.5-0.3,0.7
			c-0.2,0.2-0.4,0.4-0.6,0.5c-0.2,0.1-0.5,0.1-0.9,0.1l-4.2,0.1c-0.3-0.2-0.7-0.5-0.9-0.9c-0.3-0.4-0.4-0.8-0.4-1.3
			c0-1.1,0.8-1.9,2.5-2.6c1.7-0.6,4.1-1,7.2-1.1c2.9-0.1,5.2,0.1,6.8,0.7c1.7,0.5,2.5,1.4,2.5,2.5c0,0.9-0.5,1.7-1.6,2.4
			s-2.8,1.2-5,1.7l0,0.8l7.6-0.3l0-0.8l-0.8-0.5c0.3-0.4,0.6-0.9,0.9-1.5c0.3-0.6,0.4-1.3,0.4-2c0-1-0.3-2-0.9-2.8
			c-0.6-0.8-1.3-1.5-2.4-2.1c-1-0.6-2.2-1-3.6-1.3c-1.4-0.3-2.9-0.4-4.5-0.3c-1.7,0.1-3.3,0.3-4.6,0.7c-1.3,0.4-2.5,0.9-3.3,1.5
			c-0.9,0.6-1.6,1.3-2,2.1c-0.4,0.8-0.6,1.6-0.6,2.5c0,0.9,0.3,2,0.9,3.1c0.6,1.1,1.1,1.9,1.7,2.5c0.4,0,0.8,0,1.1-0.1
			c0.3,0,0.7,0,1.2,0l2.4-0.1c0.3,0,0.6,0,0.9,0.1c0.3,0.1,0.5,0.2,0.6,0.4c0.1,0.2,0.2,0.4,0.3,0.5c0,0.1,0.1,0.3,0.1,0.5
			L78.7,325.2z"/>
		<path style="clip-path:url(#SVGID_00000057137867021131702320000004615155807034325391_);fill:#FFFFFF;" d="M520.9,226.8l20.6-8.6
			l-1.8-4.3l-20.6,8.6L520.9,226.8z M538.5,210.8l-1.9-4.2l-14.7,6.8c-0.7,0.3-1.4,0.3-2-0.1c-0.4-0.3-0.8-0.8-1.4-1.7l-0.3-0.7
			l-3.6,1.6l0.3,0.7c1.2,2.5,2.4,4.1,3.6,4.8c1.3,0.7,2.7,0.7,4.4-0.1L538.5,210.8z M517.9,199.4c0.8,1.9,0.6,3.2-0.4,3.7l-0.4,0.2
			c-1.5,0.8-2.8,0.2-3.9-1.8l-0.7-1.2c0.7-0.1,1.5-0.3,2.3-0.8l1.3-0.7c0.4-0.2,0.9-0.5,1.2-0.8L517.9,199.4z M515.1,192.5
			c0.9,1.5,0.7,2.7-0.6,3.4l-1.2,0.7c-1.3,0.7-2.4,0.3-3.3-1.3c-0.5-0.8-0.6-1.5-0.5-2.1c0.1-0.5,0.5-1,1.2-1.4l1.2-0.7
			c0.7-0.4,1.4-0.4,1.9-0.1C514.3,191.2,514.7,191.7,515.1,192.5 M516.2,184.5l-3.6,1.6l0.6,1.4c-0.9-0.1-1.8,0.1-2.9,0.6l-1.3,0.7
			c-0.8,0.5-1.4,1-1.8,1.5l-1.8-3.3l-3.4,1.9l8,14.6c1.2,2.2,2.6,3.6,3.9,4l0.4,0.1c-0.7,1.4-0.2,3.4,1.2,6l0.3,0.5l3.4-1.9
			c-0.8-1.4-1.2-2.3-1.3-2.6c-0.3-1-0.1-1.8,0.6-2.4l1-1c1.6-1,2.6-2,2.9-3c0.4-1.1,0.2-2.7-0.5-4.6L516.2,184.5z M496.2,193
			l2.7-1.8l-2.3-3.4l-2.7,1.8L496.2,193z M492.9,188.2l2.7-1.8l-2.3-3.4l-2.7,1.8L492.9,188.2z M512.1,178.8l-2.6-3.7l-6.9,4.7
			c-0.9,0.6-1.7,0.6-2.4,0.1c-0.4-0.3-1.1-1.2-2.1-2.6l-1.9-2.8l-3.2,2.2l1.9,2.8c1.7,2.5,3.5,4,5.5,4.6c-0.2,2.1,0.6,4.3,2.3,6.8
			l0.2,0.3l3.2-2.2l-0.2-0.3c-1-1.5-1.6-2.5-1.7-2.9c-0.2-0.8,0.1-1.6,1-2.2L512.1,178.8z M502.6,165.4l-2.8-3.6l-6.6,5.1
			c-0.9,0.7-1.6,0.7-2.4,0.2c-0.4-0.3-1.2-1.1-2.2-2.5l-0.2-0.3l-3.1,2.4l0.2,0.3c1.8,2.4,3.7,3.8,5.7,4.2c0,2.1,0.9,4.3,2.7,6.6
			l0.2,0.3l3.1-2.4l-0.2-0.3c-1.1-1.4-1.7-2.4-1.9-2.8c-0.3-0.8,0-1.6,0.8-2.2L502.6,165.4z M509.4,159.9l-1.4-1.8
			c-1.1-1.5-2.4-2-3.6-1.4c-1.2,0.5-1.6,1.6-1.1,3.3c-0.5-0.6-1-1-1.6-1.3l-1.1,1.6c1,0.6,2.3,2,4,4.4l1.2-0.7l-0.2-1.3
			c-0.2-0.7-0.3-1.3-0.3-1.7c-0.1-1.4,0.1-2.1,0.9-2c0.3,0,0.9,0.7,1.9,2L509.4,159.9z M489.6,149.8c-2.1-2.3-3.8-3.7-5.3-4
			c-1.4-0.3-3,0.3-4.7,1.8l-2.3,2.1c-1.5,1.4-2.3,2.7-2.2,4c0.1,1.3,0.9,2.9,2.6,4.8l3.4,3.8l2.9-2.6l-2.6-2.9
			c-0.9-1-1.4-1.8-1.4-2.3c0-0.6,0.3-1.3,1.1-1.9l1.5-1.3c0.8-0.7,1.7-1,2.6-0.7c0.7,0.2,1.3,0.7,2,1.5c0.8,0.9,1.1,1.7,1,2.3
			c-0.1,0.4-0.5,1-1.1,1.9l-2.7,3.7c-1.4,2.4-0.7,5.2,2.2,8.4l0.5,0.5l2.9-2.6l-0.5-0.5c-0.7-0.8-1.1-1.7-0.8-2.7
			c0.1-0.7,0.6-1.6,1.4-2.8c1.1-1.5,1.7-2.4,1.9-2.9c0.6-1.1,0.8-2.1,0.5-3C492.1,153.1,491.1,151.6,489.6,149.8 M494.9,150.9
			l2.4-2.2l-2.8-3.1l-2.4,2.2L494.9,150.9z M491,146.6l2.4-2.2l-2.8-3.1l-2.4,2.2L491,146.6z M468.2,148.7l15.3-16.3l-3.4-3.2
			l-15.3,16.3L468.2,148.7z M477.7,127l-3.5-3.1l-10.7,12.2c-0.5,0.6-1.2,0.9-1.8,0.7c-0.4-0.1-1.1-0.4-2-1l-0.5-0.5l-2.6,3l0.6,0.5
			c2.1,1.8,3.8,2.8,5.3,2.9c1.5,0.1,2.8-0.5,4-1.9L477.7,127z M449.9,120.3c5.5,1.1,8.1,5.3,6.7,7.2l-0.9,1.2
			c-0.5,0.7-2.6,0-4.4-0.6c-1.1-1.6-0.8-2.5-0.9-3.4L449.9,120.3z M461,124.8c-0.5-2.4-2.6-7.6-12.9-10.1l-3,4l0.7,4
			c0.1,0.6-0.5,1-0.5,1.7l-5.8-4.4l-2.4,3.1l21.2,16.1l2.4-3.1l-4.5-3.4c0.6-0.2,2,0.2,2.4-0.3l1.9-2.5
			C461.7,128.4,461.3,126.2,461,124.8 M448.2,104l-3.9-2.5l-9.3,14.3c-1,1.5-1.2,2.9-0.7,4.3c0.5,1.4,1.9,2.8,4.3,4.3l0.6,0.4
			l2.1-3.3l-0.6-0.4c-0.8-0.7-1.3-1.2-1.5-1.6c-0.3-0.6-0.3-1.3,0.2-2L448.2,104z M428.4,104.8c2.2,1.2,2.7,2.7,1.7,4.5l-1,1.7
			c-1.1,1.9-2.7,2.2-4.9,0.9c-1.2-0.7-1.9-1.3-2.1-2c-0.3-0.7-0.1-1.6,0.4-2.6l1-1.7c0.6-1,1.3-1.5,2.2-1.6
			C426.5,103.9,427.4,104.2,428.4,104.8 M430,101.9c-2.5-1.4-4.6-2.1-6.2-1.9c-1.7,0.2-3.2,1.2-4.3,3.2l-0.9,1.7l-0.5,0.6
			c-0.6,0.7-1.4,0.9-2.4,0.6c-0.3-0.1-1.2-0.5-2.7-1.4L411,108l0.5,0.3c2.6,1.5,4.6,1.9,6,1.3l0.2,0.7l0.2,0.4
			c0.6,1,1.7,2.1,3.5,3.3c0.4,0.3,0.9,0.5,1.3,0.8c2.5,1.4,4.7,2.1,6.3,1.9c1.7-0.2,3.1-1.2,4.2-3.3l1-1.8c1.1-2,1.3-3.8,0.5-5.4
			C434.1,104.8,432.5,103.4,430,101.9 M408.1,91c-2.9-1.3-5-1.8-6.4-1.5c-1.4,0.3-2.6,1.5-3.5,3.5l-1.3,2.8c-0.8,1.9-1,3.4-0.3,4.6
			c0.6,1.2,2,2.3,4.3,3.3l4.6,2.1l1.6-3.6l-3.5-1.6c-1.2-0.5-2-1.1-2.3-1.6c-0.3-0.6-0.2-1.3,0.2-2.2l0.8-1.8c0.5-1,1.1-1.6,2.1-1.7
			c0.7-0.1,1.5,0.1,2.4,0.5c1.1,0.5,1.7,1.1,1.9,1.7c0.1,0.4,0,1.1-0.3,2.2l-1,4.5c-0.3,2.8,1.5,5,5.4,6.8l0.7,0.3l1.6-3.6l-0.7-0.3
			c-1-0.5-1.7-1.1-1.9-2.1c-0.2-0.7-0.1-1.7,0.2-3.1c0.4-1.8,0.6-2.9,0.6-3.4c0.1-1.2-0.2-2.2-0.8-2.9
			C411.8,92.9,410.3,91.9,408.1,91 M413.4,89.8l1.3-3l-3.8-1.7l-1.3,3L413.4,89.8z M408.1,87.4l1.3-3l-3.8-1.7l-1.3,3L408.1,87.4z
			 M395,77.3l-4.4-1.5l-5.3,15.3c-0.3,0.8-0.7,1.2-1.4,1.4c-0.4,0.1-1.2,0-2.2-0.2L381,92l-1.3,3.7l0.7,0.2c2.6,0.9,4.6,1.1,6,0.7
			c1.4-0.4,2.4-1.5,3-3.2L395,77.3z M383.6,73.5l-4.2-1.2L375.1,88c-0.2,0.6-0.6,1.1-1.3,1.3l1.2-13.7l-4.3-1.2l-1.1,14.2
			c-0.5-0.3-0.9-0.6-1.1-1l-1.1,3.9c1.3,0.9,2.9,1.5,4.7,1.9c1.8,0.3,3.3,0.4,4.4-0.1l0.3-0.2c0.7,1.3,2.3,2.3,4.9,3l0.5,0.1l1-3.8
			c-1.6-0.4-2.5-0.7-2.7-0.8c-0.9-0.4-1.4-1.1-1.4-2L383.6,73.5z M363.9,79.8l0.7-3.3l-8.4-1.7c-1.8-0.4-3.3-0.2-4.5,0.5
			c-1.2,0.7-2.1,2.1-2.4,3.9l-0.6,3.1c-0.1,0.6-0.1,1.1-0.1,1.6l-2.5-0.5l-0.8,3.8l18.5,3.7l0.8-3.8l-8.2-1.6
			c-1.3-0.3-2.2-0.6-2.5-1.1c-0.4-0.5-0.5-1.2-0.2-2.3l0.3-1.5c0.4-1.9,1.7-2.6,3.8-2.2L363.9,79.8z M344,72.7l-4.5-0.5l-1,8.3
			c-0.1,1.1-0.6,1.7-1.5,1.9c-0.5,0.1-1.6,0.1-3.3-0.2l-3.5-0.4l-0.5,3.9l3.5,0.4c3,0.4,5.3,0,7-1.1c1.5,1.5,3.6,2.4,6.6,2.7l0.4,0
			l0.5-3.9l-0.4,0c-1.8-0.2-2.9-0.4-3.3-0.6c-0.8-0.4-1.1-1.1-1-2.2L344,72.7z M347.2,69.8l0.4-3.2l-4.1-0.5l-0.4,3.2L347.2,69.8z
			 M341.4,69.1l0.4-3.2l-4.1-0.5l-0.4,3.2L341.4,69.1z M318.8,73.8c2.5,0.1,3.7,1.1,3.6,3.1l-0.1,1.9c-0.1,2.1-1.4,3.2-3.9,3.1
			c-1.3,0-2.3-0.3-2.9-0.8c-0.6-0.5-0.9-1.3-0.8-2.5l0.1-1.9c0-1.1,0.4-1.9,1.2-2.4C316.7,73.9,317.6,73.8,318.8,73.8 M318.9,70.5
			c-2.9-0.1-5,0.3-6.4,1.2c-1.5,1-2.2,2.6-2.3,4.8l-0.1,1.9l-0.2,0.7c-0.2,0.9-0.9,1.4-1.9,1.6c-0.3,0-1.3,0.1-3,0l-0.1,3.9l0.5,0
			c3,0.1,5-0.4,6-1.7l0.5,0.5l0.4,0.3c1,0.7,2.5,1.1,4.6,1.3c0.5,0,1,0.1,1.5,0.1c0.5,0,1.1,0,1.5,0c2.3,0,3.9-0.4,4.9-1.3
			c0.2-0.1,0.4-0.3,0.6-0.4c0.9,1.3,2.8,2,5.9,2.1l0.5,0l0.1-3.9c-1.7-0.1-2.7-0.1-3-0.2c-1-0.2-1.6-0.8-1.8-1.7l-0.2-0.8l0.1-1.9
			c0.1-2.3-0.6-3.9-2-5C323.8,71.1,321.8,70.6,318.9,70.5 M302.9,62.8l-4.6,0.1l0.5,17.1c0.1,1.8,0.7,3.1,1.9,4
			c1.2,0.8,3.2,1.2,5.9,1.1l0.8,0l-0.1-3.9l-0.7,0c-1-0.1-1.7-0.2-2.1-0.4c-0.6-0.3-1-0.9-1-1.7L302.9,62.8z M273.7,73.5l0.5,3.9
			l14.6-1.8c1.4-0.2,2.4-0.1,2.9,0.3c0.6,0.4,0.9,1.2,1.1,2.5c0.1,1.1,0,1.9-0.5,2.5c-0.5,0.6-1.4,1-2.8,1.1l-18.3,2.2l0.5,3.9
			l18.3-2.2c2.8-0.3,4.7-1.1,5.7-2.4c0.9-1.2,1.2-3,0.9-5.6c-0.3-2.6-1.1-4.4-2.4-5.3c-1.2-0.9-3.2-1.2-5.9-0.8L273.7,73.5z
			 M258.2,79.7l1.7,7l-5.6,1.3c-3.7,0.9-5.4-6.1,0.1-7.4L258.2,79.7z M261.9,75.4l-8.6,2c-9,2.1-7.6,12.6-2.6,14.5
			c1.1,0.4,2.7,0.4,4.9-0.1l5.1-1.2l0.3,1.4c0.2,0.9,0.1,1.7-0.5,2.3c-0.6,0.6-5.7,2.1-6.9,2.4l2.9,3c3.1-0.7,7.6-2.8,8.5-3.8
			c0.9-1,1.1-2.5,0.6-4.6L261.9,75.4z M246.9,94.1l-6.5-21.4l-4.4,1.3l6.5,21.4L246.9,94.1z M232.7,75.1l-4.4,1.5l5.3,15.3
			c0.3,0.8,0.2,1.4-0.3,1.9c-0.3,0.3-0.9,0.7-1.9,1.2l-0.7,0.2L232,99l0.7-0.2c2.6-0.9,4.3-1.9,5.2-3.1c0.8-1.2,0.9-2.7,0.4-4.4
			L232.7,75.1z M230.5,95.3l-4-9.9l-4.3,1.7l5.8,14.5c0.4,1,0.5,1.7,0.2,2.3c-0.3,0.6-0.9,1.1-2,1.5c-1.5,0.6-2.5,0.9-3,0.8l-0.2,0
			l1.3,3.2c0.9-0.2,2-0.5,3.2-1c2.5-1,4.2-2.1,5-3.4c0.8-1.3,0.8-2.7,0.1-4.4l-0.7-1.8l2.3-0.9l-1.5-3.6L230.5,95.3z M208.3,96.7
			c1.2-0.6,2.1-0.8,2.9-0.6c0.8,0.2,1.4,0.8,1.9,1.9l0.8,1.7c0.5,1,0.5,1.9,0.1,2.7c-0.4,0.6-1.1,1.1-2.2,1.7
			c-2.2,1.1-3.8,0.7-4.6-1.1l-0.8-1.7C205.4,99.3,206.1,97.8,208.3,96.7 M206.9,93.8c-2.6,1.2-4.3,2.6-5.1,4
			c-0.8,1.4-0.7,3.2,0.3,5.3l0.9,1.9c0.4,0.8,0.8,1.4,1.2,1.9l-2.5,1.2l1.7,3.5l9.8-4.7c2.6-1.2,4.3-2.5,5.1-3.9
			c0.9-1.5,0.8-3.3-0.2-5.3l-0.9-1.9c-1-2.1-2.3-3.3-3.9-3.6C211.8,92,209.7,92.5,206.9,93.8 M210.1,88.7l-1.4-2.9l-3.7,1.8l1.4,2.9
			L210.1,88.7z M204.9,91.2l-1.4-2.9l-3.7,1.8l1.4,2.9L204.9,91.2z M191.6,92.9l-4.1,2.2l8.2,15c0.9,1.6,2,2.5,3.5,2.7
			c1.4,0.2,3.4-0.4,5.8-1.7l0.7-0.4l-1.9-3.4l-0.6,0.3c-1,0.4-1.7,0.6-2.1,0.6c-0.7,0-1.3-0.4-1.7-1.1L191.6,92.9z M197.2,123
			l-1.7-2.8l-3.5,2.1l1.7,2.8L197.2,123z M188.6,103.5l-3.6,2.2l4.3,7.2c0.6,0.9,0.6,1.7,0,2.4c-0.3,0.4-1.2,1-2.7,1.9l-0.3,0.2
			l2,3.4l0.3-0.2c2.3-1.3,3.8-2.9,4.6-4.5c0.9-1.8,0.8-3.6-0.2-5.3L188.6,103.5z M171.8,114.4c-2.6,1.8-4.1,3.4-4.6,4.8
			c-0.5,1.3-0.1,3,1.2,4.9l1.8,2.5c1.2,1.7,2.4,2.6,3.7,2.6c1.3,0.1,3-0.6,5.1-2l4.1-2.9l-2.3-3.2l-3.2,2.2
			c-1.1,0.8-1.9,1.1-2.5,1.1c-0.6,0-1.2-0.5-1.8-1.3l-1.1-1.6c-0.6-0.9-0.8-1.8-0.4-2.6c0.3-0.6,0.9-1.2,1.7-1.8
			c1-0.7,1.8-0.9,2.4-0.7c0.4,0.1,1,0.6,1.7,1.4l3.3,3.1c2.3,1.7,5.1,1.3,8.6-1.1l0.6-0.4L188,116l-0.6,0.4
			c-0.9,0.6-1.8,0.8-2.8,0.5c-0.7-0.2-1.5-0.8-2.6-1.8c-1.3-1.2-2.2-2-2.6-2.2c-1-0.7-2-1-2.9-0.9
			C175.3,112.2,173.7,113,171.8,114.4 M173.5,109.2l-1.9-2.6l-3.4,2.4l1.9,2.6L173.5,109.2z M168.7,112.6l-1.9-2.6l-3.4,2.4l1.9,2.6
			L168.7,112.6z M168.1,135.4l-14.3-17.2l-3.6,3l14.3,17.2L168.1,135.4z M147.8,123.3l-3.5,3.1l10.7,12.2c0.5,0.6,0.7,1.3,0.5,1.9
			c-0.2,0.4-0.6,1-1.3,1.8l-0.5,0.5l2.6,3l0.6-0.5c2.1-1.8,3.3-3.4,3.6-4.8c0.3-1.4-0.1-2.8-1.3-4.2L147.8,123.3z M147,145.3
			c1.2,1.1,1.1,2.5-0.5,4.2l-9.8,10.6l-3.2-3.1c-0.6-0.6-0.9-1.2-0.8-1.6c0.1-0.5,0.6-1.2,1.4-2.1l8.9-7.5c1.5-1.3,2.7-1.6,3.6-0.8
			L147,145.3z M154.4,140.8l-1.8,2c-0.8,0.6-1.5,0.7-2.3,0.5c-0.3-0.3-0.5-0.6-0.8-0.8c-1.6-1.5-3-2.2-4.2-2.3c-1.2,0-2.6,0.6-4.1,2
			l-10.1,8.6c-0.5,0.4-1,0.9-1.4,1.4c-2.3,2.5-2.4,4.7-0.3,6.7l4.6,4.2c-0.8,0.8-1.4,1.3-1.8,1.5c-0.8,0.3-1.7,0.1-2.6-0.8l-3.2-2.9
			l-2.9,3.1l3.2,2.9c1,0.9,1.3,1.8,1,2.7c-0.1,0.3-0.4,0.7-0.8,1.2l-0.6,0.6l2.9,2.7l0.9-0.9c0.4-0.5,0.8-1.2,1.1-2
			c0.5-1,0.6-1.9,0.4-2.6c0.7,0.2,1.6,0,2.5-0.6c0.7-0.4,1.6-1,2.5-1.9l13-14.2c1.7-1.9,2.6-3.6,2.5-5l0,0c1.4,0,3-1,4.8-2.9
			l0.5-0.5L154.4,140.8z M104.3,185.7l3.1,2.5l9.4-10.6c1.4-1.6,2.5-2,3.5-1.3l0.4,0.3c1.4,1,1.4,2.4,0.1,4.3l-9.3,13.5l3.2,2.2
			l9.4-13.7c1.4-2.1,2.1-3.9,1.8-5.3c0-0.1-0.1-0.3-0.1-0.5c1.6-0.1,3.3-1.4,5.1-4l0.3-0.5l-3.2-2.2l-0.2,0.3
			c-0.9,1.3-1.5,2.1-1.8,2.3c-0.7,0.7-1.6,0.9-2.5,0.5l-1.4-0.5c-1.5-0.9-2.8-1.3-3.8-1.2c-1.2,0.1-2.5,1-3.9,2.5L104.3,185.7z
			 M120.9,199.8l-2.8-1.6l-2,3.6l2.8,1.6L120.9,199.8z M118.1,204.9l-2.8-1.6l-2,3.6l2.8,1.6L118.1,204.9z M101,192l-2.2,4l7.3,4
			c1,0.5,1.3,1.2,1.2,2.1c-0.1,0.5-0.6,1.5-1.4,3l-1.6,2.9l3.4,1.9l1.6-2.9c1.4-2.6,2-4.9,1.6-6.9c1.9-0.8,3.6-2.5,5-5.1l0.2-0.3
			l-3.4-1.9l-0.2,0.3c-0.9,1.6-1.5,2.5-1.8,2.8c-0.6,0.6-1.4,0.7-2.4,0.1L101,192z M90.2,213.3c-1.3,2.8-1.8,5-1.6,6.4
			c0.2,1.4,1.4,2.6,3.5,3.6l2.8,1.3c1.9,0.9,3.4,1,4.6,0.4c1.2-0.6,2.3-2,3.4-4.3l2.1-4.6l-3.6-1.6l-1.6,3.5c-0.6,1.2-1.1,2-1.6,2.2
			c-0.6,0.3-1.3,0.2-2.2-0.2l-1.8-0.8c-1-0.5-1.6-1.2-1.6-2.1c0-0.7,0.1-1.5,0.6-2.4c0.5-1.1,1.1-1.7,1.7-1.8c0.4-0.1,1.1,0,2.2,0.3
			l4.4,1c2.8,0.3,5.1-1.5,6.8-5.3l0.3-0.7l-3.6-1.6l-0.3,0.7c-0.5,1-1.2,1.6-2.1,1.8c-0.7,0.2-1.7,0.1-3.1-0.2
			c-1.8-0.4-2.9-0.6-3.4-0.6c-1.2-0.1-2.2,0.1-2.9,0.7C92.2,209.6,91.2,211.1,90.2,213.3 M89.1,208l-2.9-1.3l-1.7,3.8l2.9,1.3
			L89.1,208z M86.7,213.3l-2.9-1.3l-1.7,3.8L85,217L86.7,213.3z"/>
	</g>
</g>
</svg>
